<svg xmlns="http://www.w3.org/2000/svg" xmlns:xlink="http://www.w3.org/1999/xlink" width="500" zoomAndPan="magnify" viewBox="0 0 375 374.999991" height="500" preserveAspectRatio="xMidYMid meet" version="1.0"><defs><clipPath id="28b8545422"><path d="M 187.5 88.492188 L 343.5 88.492188 L 343.5 286.492188 L 187.5 286.492188 Z M 187.5 88.492188 " clip-rule="nonzero"/></clipPath><clipPath id="988f658f8a"><path d="M 43 163.335938 L 153.75 163.335938 L 153.75 204 L 43 204 Z M 43 163.335938 " clip-rule="nonzero"/></clipPath><clipPath id="c5bb31a17f"><path d="M 37.5 173 L 50 173 L 50 201 L 37.5 201 Z M 37.5 173 " clip-rule="nonzero"/></clipPath><clipPath id="0bdfc28b2e"><path d="M 116 197 L 129 197 L 129 211.335938 L 116 211.335938 Z M 116 197 " clip-rule="nonzero"/></clipPath></defs><rect x="-37.5" width="450" fill="#ffffff" y="-37.499999" height="449.999989" fill-opacity="1"/><rect x="-37.5" width="450" fill="#ffffff" y="-37.499999" height="449.999989" fill-opacity="1"/><g clip-path="url(#28b8545422)"><path fill="#0a1f44" d="M 195.28125 268.125 C 199.484375 271.917969 205.335938 275.257812 212.664062 278.054688 C 226.914062 283.488281 245.71875 286.484375 265.621094 286.484375 C 285.519531 286.484375 304.328125 283.488281 318.574219 278.054688 C 325.90625 275.257812 331.753906 271.917969 335.960938 268.125 C 342.386719 262.328125 343.738281 256.511719 343.738281 252.65625 L 343.738281 209.214844 C 343.738281 209.089844 343.734375 208.96875 343.726562 208.847656 C 343.734375 208.652344 343.738281 208.460938 343.738281 208.273438 L 343.738281 123.269531 C 343.738281 123.148438 343.734375 123.023438 343.726562 122.902344 C 343.734375 122.707031 343.738281 122.515625 343.738281 122.332031 C 343.738281 118.472656 342.386719 112.660156 335.960938 106.863281 C 331.753906 103.070312 325.90625 99.730469 318.574219 96.933594 C 304.328125 91.496094 285.519531 88.503906 265.621094 88.503906 C 245.71875 88.503906 226.914062 91.496094 212.664062 96.933594 C 205.335938 99.730469 199.484375 103.070312 195.28125 106.863281 C 188.851562 112.660156 187.5 118.472656 187.5 122.328125 C 187.5 122.515625 187.503906 122.707031 187.511719 122.902344 C 187.503906 123.023438 187.5 123.148438 187.5 123.269531 L 187.5 208.273438 C 187.5 208.460938 187.503906 208.652344 187.511719 208.847656 C 187.503906 208.96875 187.5 209.089844 187.5 209.214844 L 187.5 252.65625 C 187.5 256.515625 188.851562 262.328125 195.28125 268.125 Z M 217.308594 109.101562 C 230.109375 104.21875 247.265625 101.527344 265.621094 101.527344 C 283.972656 101.527344 301.132812 104.21875 313.933594 109.101562 C 324.128906 112.988281 330.714844 118.183594 330.714844 122.328125 C 330.714844 126.476562 324.128906 131.671875 313.933594 135.558594 C 301.132812 140.441406 283.972656 143.132812 265.621094 143.132812 C 247.265625 143.132812 230.109375 140.441406 217.308594 135.558594 C 207.113281 131.671875 200.523438 126.476562 200.523438 122.328125 C 200.523438 118.183594 207.113281 112.988281 217.308594 109.101562 Z M 200.523438 164.832031 L 200.523438 141.757812 C 203.945312 143.953125 208.003906 145.949219 212.664062 147.726562 C 226.914062 153.164062 245.71875 156.15625 265.621094 156.15625 C 285.519531 156.15625 304.328125 153.164062 318.574219 147.726562 C 323.234375 145.949219 327.292969 143.953125 330.714844 141.757812 L 330.714844 166.714844 C 330.714844 170.859375 324.128906 176.054688 313.933594 179.941406 C 301.128906 184.828125 283.972656 187.515625 265.621094 187.515625 C 247.265625 187.515625 230.109375 184.824219 217.304688 179.941406 C 207.109375 176.054688 200.523438 170.859375 200.523438 166.714844 Z M 200.523438 186.140625 C 203.945312 188.335938 208.003906 190.332031 212.664062 192.109375 C 226.914062 197.546875 245.71875 200.539062 265.621094 200.539062 C 285.519531 200.539062 304.328125 197.546875 318.574219 192.109375 C 323.234375 190.332031 327.292969 188.335938 330.714844 186.140625 L 330.714844 208.273438 C 330.714844 212.421875 324.128906 217.617188 313.933594 221.503906 C 301.128906 226.386719 283.972656 229.078125 265.621094 229.078125 C 247.265625 229.078125 230.109375 226.386719 217.304688 221.503906 C 207.109375 217.617188 200.523438 212.421875 200.523438 208.273438 Z M 200.523438 227.703125 C 203.945312 229.894531 208.003906 231.894531 212.664062 233.671875 C 226.914062 239.105469 245.71875 242.101562 265.621094 242.101562 C 285.519531 242.101562 304.328125 239.105469 318.574219 233.671875 C 323.234375 231.894531 327.292969 229.894531 330.714844 227.703125 L 330.714844 252.65625 C 330.714844 256.804688 324.128906 262 313.933594 265.886719 C 301.128906 270.769531 283.972656 273.460938 265.621094 273.460938 C 247.265625 273.460938 230.109375 270.769531 217.304688 265.886719 C 207.109375 262 200.523438 256.804688 200.523438 252.65625 Z M 200.523438 227.703125 " fill-opacity="1" fill-rule="nonzero"/></g><g clip-path="url(#988f658f8a)"><path fill="#a3e635" d="M 44.695312 173.535156 C 50.714844 173.601562 56.730469 173.527344 62.75 173.738281 C 69.074219 173.960938 75.390625 174.371094 81.695312 174.894531 C 94.09375 175.925781 106.445312 177.457031 118.800781 178.933594 C 119.34375 179 119.792969 178.515625 119.953125 178.054688 C 121.4375 173.84375 120.523438 169.390625 121.644531 165.144531 C 121.054688 165.386719 120.464844 165.625 119.875 165.863281 C 129.746094 172.746094 142.625 174.230469 151.609375 182.542969 C 151.691406 181.894531 151.773438 181.246094 151.859375 180.597656 C 142.300781 186.804688 133.886719 194.578125 124.335938 200.785156 C 124.957031 201.035156 125.574219 201.289062 126.195312 201.539062 C 125.324219 199.277344 124.699219 196.957031 124.054688 194.625 C 123.671875 193.230469 123.214844 191.722656 122.113281 190.71875 C 120.859375 189.582031 119.085938 189.425781 117.472656 189.429688 C 114.035156 189.441406 110.605469 190.183594 107.207031 190.601562 C 98.46875 191.683594 89.726562 191.679688 80.941406 191.410156 C 72.191406 191.140625 63.417969 190.789062 54.6875 191.65625 C 52.164062 191.910156 49.648438 192.28125 47.15625 192.769531 C 47.6875 193.300781 48.21875 193.832031 48.75 194.363281 C 49.890625 187.269531 49.511719 179.488281 45.8125 173.15625 C 44.972656 171.714844 42.734375 173.015625 43.578125 174.460938 C 46.90625 180.160156 47.28125 187.28125 46.253906 193.671875 C 46.09375 194.675781 46.816406 195.46875 47.847656 195.265625 C 65.15625 191.875 82.882812 195.070312 100.34375 193.839844 C 104.691406 193.53125 108.980469 192.875 113.296875 192.324219 C 115.332031 192.066406 117.726562 191.617188 119.738281 192.226562 C 120.136719 192.347656 120.472656 192.617188 120.660156 192.878906 C 121.050781 193.425781 121.242188 194.074219 121.4375 194.707031 C 122.097656 196.867188 122.609375 199.054688 123.367188 201.183594 C 123.492188 201.53125 123.621094 201.871094 123.753906 202.214844 C 124.03125 202.933594 124.871094 203.453125 125.613281 202.96875 C 135.160156 196.746094 143.5625 188.960938 153.105469 182.734375 C 153.75 182.316406 153.96875 181.355469 153.355469 180.792969 C 144.15625 172.3125 131.167969 170.796875 121.089844 163.785156 C 120.449219 163.339844 119.507812 163.796875 119.320312 164.503906 C 118.207031 168.757812 119.117188 173.222656 117.644531 177.417969 C 118.027344 177.125 118.414062 176.832031 118.796875 176.539062 C 106.621094 175.09375 94.441406 173.609375 82.21875 172.578125 C 75.914062 172.046875 69.597656 171.644531 63.273438 171.460938 C 57.082031 171.285156 50.863281 171.210938 44.695312 171.835938 C 43.625 171.945312 43.578125 173.523438 44.695312 173.535156 Z M 44.695312 173.535156 " fill-opacity="1" fill-rule="nonzero"/></g><g clip-path="url(#c5bb31a17f)"><path fill="#a3e635" d="M 41.917969 173.277344 C 40.449219 174.597656 39.527344 176.359375 38.636719 178.09375 C 38.289062 178.769531 37.503906 179.765625 37.503906 180.542969 C 37.503906 181.792969 37.984375 183.199219 38.238281 184.421875 C 39.296875 189.496094 40.75 194.488281 42.488281 199.371094 C 42.835938 200.351562 44.390625 200.527344 44.65625 199.371094 C 45.03125 197.734375 45.777344 196.265625 46.621094 194.828125 C 47.351562 193.585938 48.679688 192.3125 49.035156 190.917969 C 49.253906 190.074219 48.328125 189.3125 47.554688 189.777344 C 46.257812 190.558594 45.398438 192.398438 44.636719 193.667969 C 43.695312 195.25 42.886719 196.964844 42.488281 198.769531 C 43.210938 198.769531 43.933594 198.769531 44.65625 198.769531 C 42.449219 192.746094 40.699219 186.578125 39.5 180.273438 C 39.464844 180.535156 39.429688 180.796875 39.394531 181.054688 C 40.476562 178.761719 41.371094 176.332031 42.980469 174.335938 C 43.582031 173.59375 42.652344 172.617188 41.917969 173.277344 Z M 41.917969 173.277344 " fill-opacity="1" fill-rule="nonzero"/></g><path fill="#a3e635" d="M 42.449219 200.054688 C 45.613281 200.210938 48.722656 200.496094 51.898438 200.472656 C 55.035156 200.453125 58.171875 200.402344 61.308594 200.339844 C 67.5625 200.21875 73.816406 199.964844 80.0625 199.6875 C 92.601562 199.128906 105.136719 198.429688 117.675781 197.875 C 118.253906 197.851562 118.71875 197.417969 118.726562 196.824219 C 118.761719 194.574219 119.355469 192.335938 119.277344 190.089844 C 119.234375 188.734375 117.292969 188.757812 117.195312 190.089844 C 117.03125 192.335938 116.65625 194.570312 116.625 196.824219 C 116.976562 196.472656 117.324219 196.125 117.675781 195.773438 C 105.136719 196.339844 92.601562 197.042969 80.0625 197.613281 C 73.8125 197.898438 67.5625 198.132812 61.308594 198.359375 C 58.171875 198.472656 55.035156 198.566406 51.898438 198.640625 C 48.730469 198.714844 45.609375 199.050781 42.449219 199.210938 C 41.90625 199.238281 41.90625 200.027344 42.449219 200.054688 Z M 42.449219 200.054688 " fill-opacity="1" fill-rule="nonzero"/><path fill="#a3e635" d="M 118.097656 165.710938 C 116.121094 166.78125 114.917969 169.140625 114.195312 171.179688 C 113.347656 173.585938 113.792969 176.121094 115.078125 178.269531 C 115.789062 179.460938 117.707031 178.28125 116.90625 177.203125 C 115.539062 175.359375 115.433594 173.398438 116.066406 171.242188 C 116.617188 169.375 117.941406 167.867188 118.5 166.019531 C 118.574219 165.78125 118.304688 165.601562 118.097656 165.710938 Z M 118.097656 165.710938 " fill-opacity="1" fill-rule="nonzero"/><g clip-path="url(#0bdfc28b2e)"><path fill="#a3e635" d="M 116.269531 197.464844 C 117.679688 201.902344 118.167969 206.558594 120.167969 210.8125 C 120.558594 211.648438 121.792969 211.351562 122.023438 210.570312 C 123.195312 206.609375 124.160156 202.453125 127.75 199.976562 C 128.851562 199.210938 127.898438 197.535156 126.691406 198.167969 C 122.425781 200.398438 121.21875 205.785156 120.0625 210.027344 C 120.683594 209.949219 121.304688 209.867188 121.921875 209.785156 C 119.878906 205.691406 119.398438 201.070312 116.808594 197.238281 C 116.628906 196.96875 116.160156 197.128906 116.269531 197.464844 Z M 116.269531 197.464844 " fill-opacity="1" fill-rule="nonzero"/></g><path fill="#a3e635" d="M 120.484375 210.179688 C 122.042969 210.285156 123.699219 209.367188 125.0625 208.691406 C 126.746094 207.851562 128.335938 206.824219 129.882812 205.757812 C 133.257812 203.421875 136.367188 200.710938 139.289062 197.835938 C 142.121094 195.050781 144.742188 192.054688 147.179688 188.921875 C 148.265625 187.523438 149.308594 186.09375 150.300781 184.628906 C 151.152344 183.371094 152.5625 181.753906 152.804688 180.226562 C 152.949219 179.316406 152.003906 178.714844 151.273438 179.335938 C 150.238281 180.214844 149.613281 181.8125 148.878906 182.949219 C 147.902344 184.449219 146.859375 185.90625 145.78125 187.335938 C 143.449219 190.425781 140.878906 193.335938 138.164062 196.09375 C 135.402344 198.902344 132.433594 201.523438 129.238281 203.832031 C 127.703125 204.941406 126.097656 205.9375 124.460938 206.890625 C 123.074219 207.695312 121.316406 208.289062 120.167969 209.421875 C 119.878906 209.710938 120.109375 210.15625 120.484375 210.179688 Z M 120.484375 210.179688 " fill-opacity="1" fill-rule="nonzero"/><path fill="#a3e635" d="M 42.445312 176.308594 C 42.109375 178.484375 41.285156 180.546875 40.523438 182.601562 C 40.144531 183.617188 38.847656 186.28125 40.484375 186.863281 C 40.9375 187.019531 41.523438 186.597656 41.476562 186.109375 C 41.339844 184.769531 42.140625 183.179688 42.613281 181.871094 C 43.234375 180.148438 44.039062 178.175781 43.675781 176.308594 C 43.558594 175.710938 42.542969 175.6875 42.445312 176.308594 Z M 42.445312 176.308594 " fill-opacity="1" fill-rule="nonzero"/><path fill="#a3e635" d="M 45.636719 177.6875 C 45.570312 177.953125 45.257812 178.339844 45.140625 178.636719 C 44.90625 179.242188 44.789062 179.921875 44.625 180.550781 C 44.175781 182.238281 43.699219 183.917969 43.222656 185.597656 C 42.835938 186.960938 42.433594 188.3125 42.015625 189.664062 C 41.875 190.121094 41.714844 190.722656 42.097656 191.109375 C 41.851562 190.863281 41.902344 190.734375 42.003906 191.140625 C 42.078125 191.417969 41.980469 191.363281 42.0625 191.105469 C 41.90625 191.597656 42.679688 191.808594 42.835938 191.316406 C 42.730469 191.65625 42.617188 191.554688 42.78125 191.457031 C 42.925781 191.371094 43.160156 191.253906 42.863281 191.3125 C 43.371094 191.210938 43.570312 190.546875 43.695312 190.128906 C 44.132812 188.675781 44.554688 187.21875 44.960938 185.753906 C 45.398438 184.167969 45.796875 182.574219 46.082031 180.953125 C 46.195312 180.304688 46.28125 179.664062 46.320312 179.011719 C 46.355469 178.46875 46.097656 178.15625 45.996094 177.6875 C 45.957031 177.503906 45.683594 177.515625 45.636719 177.6875 Z M 45.636719 177.6875 " fill-opacity="1" fill-rule="nonzero"/><path fill="#a3e635" d="M 46.214844 185.5 C 44.910156 188.519531 43.75 191.859375 43.378906 195.140625 C 43.28125 195.996094 44.667969 196.160156 44.863281 195.34375 C 45.609375 192.214844 46.566406 188.828125 46.570312 185.597656 C 46.570312 185.417969 46.292969 185.316406 46.214844 185.5 Z M 46.214844 185.5 " fill-opacity="1" fill-rule="nonzero"/><path fill="#a3e635" d="M 52.804688 194.609375 C 51.691406 195.386719 49.925781 197.277344 50.59375 198.792969 C 50.703125 199.039062 51.007812 199.160156 51.257812 199.171875 C 51.265625 199.171875 51.277344 199.171875 51.285156 199.171875 C 51.625 199.1875 51.875 198.9375 51.984375 198.640625 C 52.007812 198.578125 52.035156 197.992188 51.988281 198.320312 C 52.023438 198.089844 52.125 197.847656 52.222656 197.640625 C 52.589844 196.847656 53.167969 196.175781 53.648438 195.449219 C 53.976562 194.949219 53.3125 194.257812 52.804688 194.609375 Z M 52.804688 194.609375 " fill-opacity="1" fill-rule="nonzero"/><path fill="#a3e635" d="M 56.824219 193.640625 C 55.925781 194.15625 55.378906 195.046875 54.871094 195.921875 C 54.546875 196.488281 53.851562 197.539062 54.335938 198.191406 C 54.5 198.414062 54.691406 198.488281 54.964844 198.445312 C 55.625 198.34375 55.90625 197.441406 56.140625 196.890625 C 56.523438 195.988281 56.980469 195.109375 57.425781 194.238281 C 57.621094 193.855469 57.21875 193.410156 56.824219 193.640625 Z M 56.824219 193.640625 " fill-opacity="1" fill-rule="nonzero"/><path fill="#a3e635" d="M 59.671875 193.148438 C 58.566406 193.90625 57.542969 194.917969 57.210938 196.261719 C 56.960938 197.273438 57.902344 198.449219 58.929688 197.726562 C 59.125 197.589844 59.214844 197.285156 59.007812 197.105469 C 58.945312 197.046875 58.878906 196.992188 58.808594 196.941406 C 58.445312 196.703125 58.953125 197.25 58.679688 196.816406 C 58.558594 196.625 58.691406 196.339844 58.75 196.15625 C 59.039062 195.277344 59.660156 194.40625 60.160156 193.636719 C 60.351562 193.34375 59.96875 192.945312 59.671875 193.148438 Z M 59.671875 193.148438 " fill-opacity="1" fill-rule="nonzero"/><path fill="#a3e635" d="M 62.378906 193.292969 C 61.6875 194.464844 60.964844 195.863281 61.203125 197.277344 C 61.339844 198.078125 62.183594 198.875 62.953125 198.242188 C 63.140625 198.089844 63.085938 197.8125 62.953125 197.652344 C 62.035156 196.535156 62.511719 194.777344 62.972656 193.542969 C 63.101562 193.191406 62.5625 192.984375 62.378906 193.292969 Z M 62.378906 193.292969 " fill-opacity="1" fill-rule="nonzero"/><path fill="#a3e635" d="M 66.78125 194.773438 C 66.144531 195.339844 65.632812 196.003906 65.253906 196.769531 C 65.011719 197.257812 64.640625 198.046875 64.847656 198.601562 C 65.039062 199.121094 65.714844 199.253906 66.027344 198.753906 C 66.257812 198.394531 66.320312 197.867188 66.457031 197.464844 C 66.695312 196.773438 67.058594 196.074219 67.519531 195.507812 C 67.941406 194.992188 67.292969 194.320312 66.78125 194.773438 Z M 66.78125 194.773438 " fill-opacity="1" fill-rule="nonzero"/><path fill="#a3e635" d="M 72.53125 193.785156 C 71.511719 195.089844 70.933594 196.636719 71.007812 198.304688 C 71.046875 199.125 72.226562 199.117188 72.273438 198.304688 C 72.363281 196.847656 72.386719 195.53125 73.046875 194.183594 C 73.203125 193.871094 72.777344 193.472656 72.53125 193.785156 Z M 72.53125 193.785156 " fill-opacity="1" fill-rule="nonzero"/><path fill="#a3e635" d="M 76.386719 195.617188 C 76.132812 196.480469 75.871094 197.785156 76.140625 198.527344 C 76.339844 199.074219 77.046875 199.074219 77.246094 198.527344 C 77.519531 197.785156 77.253906 196.480469 77 195.617188 C 76.910156 195.3125 76.476562 195.3125 76.386719 195.617188 Z M 76.386719 195.617188 " fill-opacity="1" fill-rule="nonzero"/><path fill="#a3e635" d="M 83.761719 193.222656 C 82.921875 193.972656 81.957031 194.921875 81.84375 196.101562 C 81.742188 197.097656 82.839844 197.441406 83.585938 197.089844 C 83.796875 196.992188 83.773438 196.667969 83.585938 196.558594 C 83.167969 196.320312 82.910156 196.210938 83.019531 195.695312 C 83.175781 194.941406 83.746094 194.257812 84.226562 193.6875 C 84.5 193.367188 84.078125 192.9375 83.761719 193.222656 Z M 83.761719 193.222656 " fill-opacity="1" fill-rule="nonzero"/><path fill="#a3e635" d="M 47.664062 194.347656 C 46.476562 196.015625 45.621094 198.015625 44.9375 199.949219 C 44.792969 200.367188 45.046875 200.742188 45.359375 200.980469 C 46.863281 202.140625 48.457031 198.984375 46.996094 198.46875 C 46.617188 198.335938 46.265625 198.566406 46.050781 198.855469 C 45.9375 198.988281 45.84375 199.132812 45.761719 199.289062 C 45.671875 199.449219 45.351562 199.738281 45.660156 199.554688 C 45.894531 199.523438 46.128906 199.492188 46.363281 199.460938 C 46.335938 199.445312 46.308594 199.425781 46.277344 199.40625 C 46.417969 199.75 46.558594 200.09375 46.699219 200.4375 C 47.347656 198.511719 48.429688 196.632812 48.523438 194.578125 C 48.546875 194.082031 47.910156 194 47.664062 194.347656 Z M 47.664062 194.347656 " fill-opacity="1" fill-rule="nonzero"/><path fill="#a3e635" d="M 87.21875 193.773438 C 86.699219 194.121094 86.570312 194.492188 86.332031 195.050781 C 86.136719 195.507812 85.910156 195.945312 85.785156 196.425781 C 85.527344 197.433594 86.308594 198.40625 87.375 198.0625 C 87.972656 197.867188 88.058594 197.109375 87.542969 196.769531 C 87.347656 196.640625 87.511719 196.75 87.488281 196.894531 C 87.53125 196.601562 87.660156 196.3125 87.746094 196.03125 C 87.859375 195.667969 87.9375 195.316406 87.984375 194.941406 C 88.050781 194.410156 87.941406 194.199219 87.5625 193.816406 C 87.476562 193.730469 87.320312 193.699219 87.21875 193.773438 Z M 87.21875 193.773438 " fill-opacity="1" fill-rule="nonzero"/><path fill="#a3e635" d="M 93.292969 192.476562 C 91.742188 193.648438 90.421875 195.242188 89.886719 197.15625 C 89.628906 198.082031 91.085938 198.75 91.480469 197.828125 C 92.183594 196.195312 92.925781 194.589844 93.953125 193.136719 C 94.226562 192.753906 93.675781 192.1875 93.292969 192.476562 Z M 93.292969 192.476562 " fill-opacity="1" fill-rule="nonzero"/><path fill="#a3e635" d="M 97.832031 193.121094 C 96.722656 193.722656 95.269531 194.757812 94.742188 195.949219 C 94.234375 197.09375 95.242188 198.246094 96.449219 197.777344 C 96.671875 197.691406 96.863281 197.410156 96.695312 197.179688 C 96.238281 196.570312 96.089844 196.652344 96.550781 195.988281 C 97.113281 195.179688 97.878906 194.519531 98.363281 193.652344 C 98.554688 193.308594 98.175781 192.933594 97.832031 193.121094 Z M 97.832031 193.121094 " fill-opacity="1" fill-rule="nonzero"/><path fill="#a3e635" d="M 101.855469 194.210938 C 101.070312 194.425781 100.222656 194.9375 99.800781 195.664062 C 99.558594 196.074219 99.625 196.640625 100.078125 196.878906 C 100.542969 197.121094 101.296875 197.019531 101.671875 196.667969 C 101.980469 196.378906 101.804688 195.890625 101.433594 195.769531 C 101.234375 195.703125 101.058594 195.734375 100.855469 195.75 C 100.792969 195.753906 100.726562 195.753906 100.660156 195.75 C 100.582031 195.746094 100.585938 195.746094 100.675781 195.753906 C 100.609375 195.734375 100.621094 195.742188 100.722656 195.777344 C 100.820312 195.828125 100.871094 195.933594 100.90625 196.03125 C 100.917969 196.15625 100.921875 196.183594 100.921875 196.113281 C 100.90625 196.226562 100.90625 196.246094 100.921875 196.179688 C 100.875 196.335938 100.90625 196.214844 100.929688 196.171875 C 100.960938 196.113281 101 196.054688 101.039062 196 C 100.972656 196.097656 101.089844 195.941406 101.09375 195.9375 C 101.132812 195.890625 101.175781 195.839844 101.21875 195.792969 C 101.324219 195.679688 101.441406 195.570312 101.554688 195.464844 C 101.78125 195.261719 101.992188 195.039062 102.230469 194.851562 C 102.539062 194.601562 102.203125 194.113281 101.855469 194.210938 Z M 101.855469 194.210938 " fill-opacity="1" fill-rule="nonzero"/><path fill="#a3e635" d="M 106.035156 193.601562 C 105.128906 194.316406 104.058594 195.125 103.339844 196.097656 C 102.894531 196.707031 103.21875 197.4375 103.960938 197.527344 C 104.25 197.558594 104.5625 197.390625 104.808594 197.261719 C 105.03125 197.144531 105.175781 196.992188 105.269531 196.765625 C 105.144531 197.066406 105.332031 196.816406 105.421875 196.746094 C 105.515625 196.667969 105.582031 196.550781 105.636719 196.445312 C 105.738281 196.257812 105.664062 195.953125 105.421875 195.914062 C 105.253906 195.886719 105.101562 195.871094 104.933594 195.90625 C 104.851562 195.921875 104.769531 195.941406 104.6875 195.960938 C 104.867188 195.953125 104.851562 195.945312 104.632812 195.925781 C 104.398438 195.925781 104.160156 196.023438 103.929688 196.0625 C 104.164062 196.023438 104.699219 196.183594 104.585938 196.867188 C 104.597656 196.789062 104.488281 197.046875 104.589844 196.882812 C 104.691406 196.714844 104.542969 196.925781 104.636719 196.8125 C 104.710938 196.722656 104.789062 196.636719 104.867188 196.550781 C 105.523438 195.839844 106.257812 195.191406 106.863281 194.433594 C 107.339844 193.835938 106.628906 193.132812 106.035156 193.601562 Z M 106.035156 193.601562 " fill-opacity="1" fill-rule="nonzero"/><path fill="#a3e635" d="M 109.886719 193.320312 C 109.726562 194.152344 108.617188 194.53125 109.273438 195.457031 C 109.464844 195.726562 109.828125 195.882812 110.132812 195.683594 C 111.84375 194.570312 113.386719 193.25 115.058594 192.09375 C 114.886719 191.925781 114.714844 191.753906 114.546875 191.582031 C 113.816406 192.726562 112.851562 193.699219 112.15625 194.867188 C 111.855469 195.375 112.429688 195.8125 112.894531 195.609375 C 114.214844 195.03125 115.613281 194.683594 116.917969 194.078125 C 116.625 193.703125 116.335938 193.324219 116.042969 192.949219 C 115.070312 193.917969 114.804688 195.222656 116.554688 195.296875 C 117.5 195.339844 117.441406 193.976562 116.554688 193.863281 C 116.703125 194.285156 116.875 194.320312 117.0625 193.964844 C 117.652344 193.355469 116.910156 192.480469 116.191406 192.835938 C 114.917969 193.460938 113.609375 194.019531 112.351562 194.675781 C 112.597656 194.921875 112.84375 195.167969 113.089844 195.414062 C 113.703125 194.207031 114.613281 193.191406 115.191406 191.960938 C 115.339844 191.648438 115.019531 191.230469 114.679688 191.449219 C 112.980469 192.542969 111.175781 193.453125 109.5 194.597656 C 109.753906 194.632812 110.007812 194.664062 110.261719 194.699219 C 110.179688 195.042969 110.21875 195.097656 110.382812 194.859375 C 110.457031 194.761719 110.535156 194.660156 110.609375 194.5625 C 110.847656 194.242188 110.875 193.835938 110.886719 193.457031 C 110.90625 192.886719 109.996094 192.75 109.886719 193.320312 Z M 109.886719 193.320312 " fill-opacity="1" fill-rule="nonzero"/><path fill="#a3e635" d="M 120.46875 192.558594 C 119.289062 194.796875 117.976562 197.402344 117.597656 199.921875 C 117.527344 200.382812 117.628906 200.890625 118.089844 201.128906 C 118.503906 201.34375 118.746094 201.3125 119.164062 201.128906 C 119.519531 200.976562 119.664062 200.554688 119.695312 200.207031 C 119.90625 197.648438 121.675781 195.484375 121.714844 192.894531 C 121.722656 192.242188 120.78125 191.964844 120.46875 192.558594 Z M 120.46875 192.558594 " fill-opacity="1" fill-rule="nonzero"/><path fill="#a3e635" d="M 121.972656 197.195312 C 120.980469 198.316406 120.421875 199.65625 119.820312 201.015625 C 119.375 202.011719 118.460938 203.207031 118.945312 204.289062 C 119.070312 204.558594 119.460938 204.695312 119.734375 204.609375 C 120.863281 204.246094 121.171875 202.554688 121.597656 201.5625 C 122.160156 200.253906 122.707031 198.996094 122.890625 197.574219 C 122.953125 197.105469 122.265625 196.863281 121.972656 197.195312 Z M 121.972656 197.195312 " fill-opacity="1" fill-rule="nonzero"/><path fill="#a3e635" d="M 122.625 200.839844 C 121.898438 201.515625 121.40625 202.472656 120.855469 203.296875 C 120.324219 204.09375 119.285156 205.382812 119.882812 206.347656 C 120.085938 206.675781 120.496094 206.78125 120.835938 206.597656 C 121.335938 206.324219 121.394531 205.917969 121.625 205.429688 C 121.910156 204.816406 122.3125 204.253906 122.679688 203.683594 C 123.210938 202.859375 123.75 201.875 123.269531 200.921875 C 123.148438 200.675781 122.808594 200.667969 122.625 200.839844 Z M 122.625 200.839844 " fill-opacity="1" fill-rule="nonzero"/><path fill="#a3e635" d="M 128.269531 199.933594 C 127.222656 200.941406 126.28125 202.027344 125.429688 203.210938 C 124.863281 204 123.695312 205.367188 124.613281 206.273438 C 124.96875 206.625 125.507812 206.515625 125.777344 206.121094 C 125.363281 206.730469 125.910156 206.039062 125.964844 205.949219 C 126.058594 205.785156 126.117188 205.582031 126.207031 205.414062 C 126.480469 204.898438 126.832031 204.417969 127.171875 203.945312 C 127.925781 202.894531 128.703125 201.867188 129.261719 200.699219 C 129.566406 200.066406 128.808594 199.417969 128.269531 199.933594 Z M 128.269531 199.933594 " fill-opacity="1" fill-rule="nonzero"/><path fill="#a3e635" d="M 130.589844 198.785156 C 129.769531 198.871094 129.519531 200.105469 129.238281 200.726562 C 128.835938 201.613281 128.226562 202.6875 128.183594 203.675781 C 128.164062 204.074219 128.472656 204.453125 128.851562 204.550781 C 128.929688 204.574219 129.011719 204.585938 129.089844 204.585938 C 129.523438 204.578125 129.820312 204.304688 129.964844 203.917969 C 130.191406 203.316406 132.296875 198.605469 130.589844 198.785156 Z M 130.589844 198.785156 " fill-opacity="1" fill-rule="nonzero"/><path fill="#a3e635" d="M 133.371094 196.425781 C 131.875 197.855469 130.953125 200.148438 130.667969 202.183594 C 130.511719 203.320312 132.15625 203.855469 132.441406 202.671875 C 132.898438 200.789062 133.445312 198.878906 134.257812 197.109375 C 134.515625 196.542969 133.855469 195.960938 133.371094 196.425781 Z M 133.371094 196.425781 " fill-opacity="1" fill-rule="nonzero"/><path fill="#a3e635" d="M 135.75 195.542969 C 135.058594 195.976562 134.839844 197.171875 134.59375 197.886719 C 134.257812 198.867188 133.722656 199.859375 133.589844 200.886719 C 133.492188 201.628906 134.613281 202.054688 135.070312 201.5 C 135.71875 200.71875 135.972656 199.542969 136.265625 198.589844 C 136.503906 197.808594 137.074219 196.316406 136.375 195.621094 C 136.214844 195.464844 135.945312 195.417969 135.75 195.542969 Z M 135.75 195.542969 " fill-opacity="1" fill-rule="nonzero"/><path fill="#a3e635" d="M 138.945312 192.457031 C 137.777344 193.660156 137.175781 195.597656 136.796875 197.195312 C 136.726562 197.484375 136.785156 197.824219 137.015625 198.03125 C 137.210938 198.203125 137.355469 198.308594 137.625 198.28125 C 137.90625 198.257812 138.242188 198.144531 138.367188 197.859375 C 139.015625 196.375 139.753906 194.667969 139.980469 193.058594 C 140.0625 192.492188 139.421875 191.96875 138.945312 192.457031 Z M 138.945312 192.457031 " fill-opacity="1" fill-rule="nonzero"/><path fill="#a3e635" d="M 141.285156 189.808594 C 141.152344 190.488281 140.890625 191.167969 140.722656 191.851562 C 140.558594 192.503906 140.230469 193.117188 140.550781 193.757812 C 140.703125 194.058594 141.097656 194.117188 141.371094 193.972656 C 142.042969 193.617188 142.070312 192.726562 142.15625 192.042969 C 142.253906 191.246094 142.105469 190.578125 141.972656 189.808594 C 141.914062 189.460938 141.351562 189.46875 141.285156 189.808594 Z M 141.285156 189.808594 " fill-opacity="1" fill-rule="nonzero"/><path fill="#a3e635" d="M 143.015625 189.953125 C 142.9375 190.488281 142.632812 190.933594 142.613281 191.476562 C 142.605469 191.71875 142.785156 191.941406 143.015625 192.007812 C 143.273438 192.078125 143.488281 191.953125 143.640625 191.753906 C 143.984375 191.289062 144.0625 190.652344 144.003906 190.089844 C 143.980469 189.863281 143.867188 189.667969 143.632812 189.601562 C 143.394531 189.535156 143.054688 189.683594 143.015625 189.953125 Z M 143.015625 189.953125 " fill-opacity="1" fill-rule="nonzero"/><path fill="#a3e635" d="M 118.46875 167.257812 C 117.574219 167.847656 112.042969 171.511719 114.332031 172.824219 C 114.640625 173 115.136719 172.988281 115.378906 172.6875 C 115.527344 172.5 115.628906 172.332031 115.628906 172.078125 C 115.628906 171.28125 115.300781 172.753906 115.632812 172.132812 C 115.867188 171.6875 116.296875 171.320312 116.644531 170.96875 C 117.527344 170.082031 118.394531 169.1875 119.261719 168.28125 C 119.757812 167.757812 119.105469 166.835938 118.46875 167.257812 Z M 118.46875 167.257812 " fill-opacity="1" fill-rule="nonzero"/><path fill="#a3e635" d="M 118.105469 169.894531 C 116.601562 170.84375 115.179688 172.671875 114.429688 174.269531 C 114.238281 174.671875 114.273438 175.070312 114.578125 175.410156 C 115.265625 176.175781 116.078125 175.695312 116.394531 174.898438 C 116.683594 174.164062 115.773438 173.738281 115.214844 173.992188 C 115.125 174.023438 115.039062 174.066406 114.960938 174.121094 C 115.191406 174.089844 115.421875 174.058594 115.652344 174.03125 C 115.628906 174.019531 115.605469 174.011719 115.582031 174 C 115.765625 174.140625 115.945312 174.28125 116.128906 174.421875 C 116.105469 174.371094 116.082031 174.320312 116.058594 174.269531 C 116.058594 174.585938 116.058594 174.902344 116.058594 175.21875 C 116.457031 174.371094 116.996094 173.613281 117.582031 172.886719 C 118.140625 172.199219 118.800781 171.480469 119.03125 170.605469 C 119.171875 170.089844 118.585938 169.59375 118.105469 169.894531 Z M 118.105469 169.894531 " fill-opacity="1" fill-rule="nonzero"/><path fill="#a3e635" d="M 118.609375 173.433594 C 118.125 173.984375 117.585938 174.484375 117.078125 175.019531 C 116.605469 175.511719 116.003906 176.121094 115.824219 176.789062 C 115.664062 177.375 116.378906 178.058594 116.933594 177.644531 C 117.5 177.21875 117.902344 176.542969 118.304688 175.964844 C 118.730469 175.351562 119.101562 174.742188 119.445312 174.078125 C 119.710938 173.5625 119.027344 172.957031 118.609375 173.433594 Z M 118.609375 173.433594 " fill-opacity="1" fill-rule="nonzero"/><path fill="#a3e635" d="M 105.210938 192.78125 C 104.65625 193.246094 104.316406 193.957031 103.957031 194.574219 C 103.574219 195.230469 102.96875 196.046875 102.996094 196.824219 C 103.015625 197.414062 103.703125 197.921875 104.25 197.546875 C 104.914062 197.085938 105.214844 196.226562 105.570312 195.519531 C 105.929688 194.808594 106.34375 194.078125 106.390625 193.269531 C 106.429688 192.613281 105.632812 192.429688 105.210938 192.78125 Z M 105.210938 192.78125 " fill-opacity="1" fill-rule="nonzero"/><path fill="#a3e635" d="M 102.394531 192.980469 C 101.921875 194.027344 101.464844 195.054688 101.238281 196.1875 C 101.039062 197.183594 102.5625 197.605469 102.761719 196.609375 C 102.972656 195.542969 103.214844 194.484375 103.449219 193.421875 C 103.582031 192.816406 102.675781 192.359375 102.394531 192.980469 Z M 102.394531 192.980469 " fill-opacity="1" fill-rule="nonzero"/><path fill="#a3e635" d="M 99.371094 193.5 C 99.019531 194.71875 98.539062 195.882812 98.105469 197.078125 C 98.015625 197.328125 98.113281 197.691406 98.316406 197.871094 C 98.503906 198.035156 98.644531 198.089844 98.894531 198.109375 C 99.148438 198.128906 99.492188 197.945312 99.597656 197.703125 C 100.160156 196.414062 100.410156 195.050781 100.445312 193.644531 C 100.460938 193.015625 99.539062 192.910156 99.371094 193.5 Z M 99.371094 193.5 " fill-opacity="1" fill-rule="nonzero"/><path fill="#a3e635" d="M 89.832031 193.445312 C 88.96875 193.972656 88.410156 194.808594 87.894531 195.660156 C 87.488281 196.328125 86.9375 197.351562 87.363281 198.121094 C 87.648438 198.640625 88.558594 198.707031 88.828125 198.121094 C 89.089844 197.550781 89.242188 196.964844 89.539062 196.398438 C 89.902344 195.699219 90.351562 195.042969 90.742188 194.351562 C 91.0625 193.785156 90.414062 193.089844 89.832031 193.445312 Z M 89.832031 193.445312 " fill-opacity="1" fill-rule="nonzero"/><path fill="#a3e635" d="M 80.886719 193.53125 C 80.222656 194.101562 79.847656 194.902344 79.398438 195.644531 C 79.164062 196.03125 78.929688 196.417969 78.660156 196.785156 C 78.398438 197.144531 78.039062 197.34375 78.066406 197.863281 C 78.09375 198.261719 78.320312 198.605469 78.71875 198.71875 C 79.808594 199.019531 80.476562 197.523438 80.886719 196.757812 C 81.363281 195.863281 81.882812 194.734375 81.59375 193.71875 C 81.5 193.394531 81.125 193.328125 80.886719 193.53125 Z M 80.886719 193.53125 " fill-opacity="1" fill-rule="nonzero"/><path fill="#a3e635" d="M 75.125 193.386719 C 74.492188 194.125 74.007812 194.957031 73.636719 195.859375 C 73.34375 196.558594 72.699219 197.613281 72.898438 198.394531 C 73.078125 199.105469 73.886719 199.179688 74.386719 198.785156 C 74.878906 198.402344 75.035156 197.304688 75.238281 196.742188 C 75.539062 195.890625 75.746094 194.96875 76.117188 194.148438 C 76.390625 193.542969 75.628906 192.800781 75.125 193.386719 Z M 75.125 193.386719 " fill-opacity="1" fill-rule="nonzero"/><path fill="#a3e635" d="M 70.882812 193.074219 C 70.234375 193.777344 69.625 194.484375 69.046875 195.25 C 68.621094 195.808594 67.550781 196.867188 68.265625 197.582031 C 69.429688 198.75 71.355469 194.441406 71.734375 193.730469 C 72.019531 193.199219 71.316406 192.605469 70.882812 193.074219 Z M 70.882812 193.074219 " fill-opacity="1" fill-rule="nonzero"/><path fill="#a3e635" d="M 70.957031 193.386719 C 69.792969 193.664062 68.730469 194.09375 67.695312 194.691406 C 66.867188 195.171875 65.667969 195.917969 65.445312 196.902344 C 65.371094 197.222656 65.636719 197.472656 65.949219 197.410156 C 66.839844 197.234375 67.621094 196.320312 68.355469 195.820312 C 69.242188 195.210938 70.203125 194.675781 71.203125 194.277344 C 71.742188 194.058594 71.550781 193.246094 70.957031 193.386719 Z M 70.957031 193.386719 " fill-opacity="1" fill-rule="nonzero"/><path fill="#a3e635" d="M 67.402344 192.960938 C 65.734375 194.742188 63.511719 196.179688 62.121094 198.195312 C 61.707031 198.796875 62.605469 199.425781 63.101562 198.949219 C 63.414062 198.652344 63.644531 198.277344 63.710938 197.84375 C 63.742188 197.625 63.574219 197.378906 63.324219 197.460938 C 62.96875 197.578125 62.6875 197.8125 62.34375 197.96875 C 62.597656 198.296875 62.847656 198.625 63.101562 198.949219 C 64.941406 197.417969 66.699219 195.4375 68.089844 193.492188 C 68.382812 193.082031 67.738281 192.601562 67.402344 192.960938 Z M 67.402344 192.960938 " fill-opacity="1" fill-rule="nonzero"/><path fill="#a3e635" d="M 65.394531 193.566406 C 64.246094 193.914062 63.191406 194.605469 62.242188 195.328125 C 61.574219 195.835938 60.066406 196.65625 59.921875 197.433594 C 59.875 197.6875 59.988281 197.878906 60.226562 197.96875 C 60.984375 198.257812 62.011719 197.058594 62.597656 196.554688 C 63.550781 195.734375 64.484375 194.65625 65.605469 194.066406 C 65.882812 193.921875 65.691406 193.476562 65.394531 193.566406 Z M 65.394531 193.566406 " fill-opacity="1" fill-rule="nonzero"/><path fill="#a3e635" d="M 62.261719 194.03125 C 60.988281 194.703125 59.800781 195.640625 58.824219 196.699219 C 58.695312 196.839844 58.621094 197.046875 58.683594 197.234375 C 58.753906 197.453125 58.851562 197.546875 59.066406 197.621094 C 59.257812 197.683594 59.464844 197.605469 59.605469 197.476562 C 60.621094 196.550781 61.523438 195.515625 62.683594 194.753906 C 63.128906 194.457031 62.738281 193.78125 62.261719 194.03125 Z M 62.261719 194.03125 " fill-opacity="1" fill-rule="nonzero"/><path fill="#a3e635" d="M 60.21875 193.871094 C 59.285156 194.34375 58.40625 194.9375 57.582031 195.582031 C 56.890625 196.125 55.828125 196.621094 55.480469 197.449219 C 55.359375 197.738281 55.65625 198.027344 55.921875 198.035156 C 56.722656 198.054688 57.382812 197.28125 57.945312 196.78125 C 58.820312 196.007812 59.625 195.183594 60.609375 194.542969 C 61.03125 194.265625 60.664062 193.640625 60.21875 193.871094 Z M 60.21875 193.871094 " fill-opacity="1" fill-rule="nonzero"/><path fill="#a3e635" d="M 55.921875 194.519531 C 55.765625 194.535156 55.625 194.621094 55.519531 194.734375 C 55.480469 194.777344 55.539062 194.835938 55.578125 194.796875 C 55.671875 194.714844 55.792969 194.644531 55.921875 194.640625 C 56 194.636719 56 194.511719 55.921875 194.519531 Z M 55.921875 194.519531 " fill-opacity="1" fill-rule="nonzero"/><path fill="#a3e635" d="M 54.304688 193.773438 C 53.324219 193.929688 52.546875 194.375 51.800781 195.011719 C 51.109375 195.597656 50.324219 196.535156 50.0625 197.410156 C 50.003906 197.605469 50.070312 197.832031 50.210938 197.972656 C 50.289062 198.050781 50.367188 198.085938 50.464844 198.121094 C 50.667969 198.191406 50.878906 198.101562 51.027344 197.972656 C 51.628906 197.457031 52.027344 196.699219 52.566406 196.121094 C 53.132812 195.519531 53.753906 194.925781 54.546875 194.640625 C 55.097656 194.4375 54.875 193.683594 54.304688 193.773438 Z M 54.304688 193.773438 " fill-opacity="1" fill-rule="nonzero"/><path fill="#a3e635" d="M 50.792969 193.378906 C 50.214844 193.96875 49.761719 194.46875 49.386719 195.210938 C 49.109375 195.753906 48.886719 196.324219 48.578125 196.851562 C 48.132812 197.609375 47.332031 198.464844 47.722656 199.382812 C 47.894531 199.792969 48.390625 199.859375 48.761719 199.808594 C 48.953125 199.78125 49.113281 199.652344 49.246094 199.519531 C 49.875 198.902344 49.238281 197.730469 48.367188 198.011719 C 48.417969 198.007812 48.46875 198.003906 48.515625 197.996094 C 48.8125 198.222656 49.109375 198.449219 49.40625 198.675781 C 49.488281 199.035156 49.226562 199.515625 49.453125 198.996094 C 49.519531 198.84375 49.601562 198.699219 49.679688 198.550781 C 49.867188 198.191406 50.058594 197.835938 50.222656 197.464844 C 50.414062 197.027344 50.578125 196.578125 50.734375 196.125 C 50.988281 195.386719 51.007812 194.523438 51.378906 193.832031 C 51.578125 193.464844 51.097656 193.070312 50.792969 193.378906 Z M 50.792969 193.378906 " fill-opacity="1" fill-rule="nonzero"/></svg>