<svg xmlns="http://www.w3.org/2000/svg" xmlns:xlink="http://www.w3.org/1999/xlink" width="500" zoomAndPan="magnify" viewBox="0 0 375 374.999991" height="500" preserveAspectRatio="xMidYMid meet" version="1.0"><defs><clipPath id="f749c682ea"><path d="M 66.382812 66.382812 L 308.632812 66.382812 L 308.632812 308.632812 L 66.382812 308.632812 Z M 66.382812 66.382812 " clip-rule="nonzero"/></clipPath></defs><rect x="-37.5" width="450" fill="#ffffff" y="-37.499999" height="449.999989" fill-opacity="1"/><rect x="-37.5" width="450" fill="#ffffff" y="-37.499999" height="449.999989" fill-opacity="1"/><path fill="#3da9fc" d="M 136.101562 238.886719 L 207.679688 207.679688 L 239.089844 136.304688 L 167.511719 167.511719 Z M 178.9375 178.9375 C 179.5 178.375 180.109375 177.871094 180.773438 177.429688 C 181.433594 176.988281 182.128906 176.613281 182.867188 176.308594 C 183.601562 176.003906 184.359375 175.773438 185.136719 175.617188 C 185.917969 175.460938 186.707031 175.382812 187.5 175.382812 C 188.296875 175.382812 189.085938 175.460938 189.863281 175.617188 C 190.644531 175.769531 191.402344 176 192.136719 176.304688 C 192.871094 176.609375 193.570312 176.980469 194.230469 177.421875 C 194.894531 177.863281 195.503906 178.367188 196.066406 178.929688 C 196.632812 179.492188 197.132812 180.105469 197.574219 180.765625 C 198.015625 181.425781 198.390625 182.125 198.695312 182.859375 C 199 183.59375 199.230469 184.351562 199.382812 185.132812 C 199.539062 185.914062 199.617188 186.699219 199.617188 187.496094 C 199.617188 188.289062 199.539062 189.078125 199.382812 189.859375 C 199.230469 190.640625 199 191.398438 198.695312 192.132812 C 198.390625 192.867188 198.015625 193.5625 197.574219 194.226562 C 197.132812 194.886719 196.632812 195.5 196.066406 196.0625 C 195.503906 196.625 194.894531 197.125 194.230469 197.566406 C 193.570312 198.007812 192.871094 198.382812 192.136719 198.6875 C 191.402344 198.992188 190.644531 199.21875 189.863281 199.375 C 189.085938 199.53125 188.296875 199.605469 187.5 199.605469 C 186.707031 199.605469 185.917969 199.527344 185.136719 199.371094 C 184.359375 199.21875 183.601562 198.988281 182.867188 198.683594 C 182.128906 198.378906 181.433594 198.003906 180.773438 197.5625 C 180.109375 197.121094 179.5 196.617188 178.9375 196.054688 C 178.375 195.492188 177.875 194.878906 177.433594 194.21875 C 176.992188 193.558594 176.617188 192.859375 176.316406 192.125 C 176.011719 191.390625 175.78125 190.636719 175.628906 189.855469 C 175.472656 189.078125 175.394531 188.289062 175.394531 187.496094 C 175.394531 186.699219 175.472656 185.914062 175.628906 185.132812 C 175.78125 184.355469 176.011719 183.597656 176.316406 182.863281 C 176.617188 182.128906 176.992188 181.433594 177.433594 180.769531 C 177.875 180.109375 178.375 179.5 178.9375 178.9375 Z M 178.9375 178.9375 " fill-opacity="1" fill-rule="nonzero"/><g clip-path="url(#f749c682ea)"><path fill="#3da9fc" d="M 300.535156 185.476562 L 308.609375 185.476562 C 308.578125 183.535156 308.496094 181.597656 308.371094 179.664062 C 308.246094 177.726562 308.074219 175.792969 307.859375 173.867188 C 307.640625 171.9375 307.375 170.015625 307.066406 168.101562 C 306.753906 166.183594 306.398438 164.277344 305.996094 162.378906 C 305.59375 160.480469 305.144531 158.59375 304.652344 156.71875 C 304.160156 154.839844 303.625 152.976562 303.039062 151.125 C 302.457031 149.273438 301.832031 147.4375 301.160156 145.617188 C 300.492188 143.796875 299.777344 141.992188 299.019531 140.207031 C 298.261719 138.421875 297.460938 136.652344 296.621094 134.90625 C 295.777344 133.15625 294.894531 131.429688 293.96875 129.726562 C 293.042969 128.019531 292.078125 126.335938 291.070312 124.679688 C 290.066406 123.019531 289.019531 121.386719 287.933594 119.777344 C 286.851562 118.167969 285.726562 116.585938 284.566406 115.03125 C 283.40625 113.476562 282.207031 111.949219 280.976562 110.453125 C 279.742188 108.953125 278.472656 107.488281 277.167969 106.050781 C 275.863281 104.613281 274.523438 103.210938 273.152344 101.839844 C 271.78125 100.46875 270.375 99.128906 268.9375 97.824219 C 267.503906 96.519531 266.035156 95.25 264.539062 94.015625 C 263.042969 92.78125 261.515625 91.585938 259.960938 90.425781 C 258.40625 89.261719 256.824219 88.140625 255.214844 87.054688 C 253.605469 85.972656 251.972656 84.925781 250.3125 83.917969 C 248.652344 82.914062 246.972656 81.949219 245.265625 81.023438 C 243.558594 80.097656 241.832031 79.214844 240.085938 78.371094 C 238.335938 77.527344 236.570312 76.730469 234.785156 75.972656 C 232.996094 75.214844 231.191406 74.5 229.371094 73.828125 C 227.550781 73.160156 225.714844 72.53125 223.863281 71.949219 C 222.015625 71.367188 220.148438 70.832031 218.273438 70.335938 C 216.398438 69.84375 214.507812 69.398438 212.609375 68.996094 C 210.710938 68.59375 208.804688 68.238281 206.890625 67.925781 C 204.976562 67.617188 203.054688 67.351562 201.125 67.132812 C 199.195312 66.914062 197.265625 66.742188 195.328125 66.617188 C 193.390625 66.492188 191.453125 66.414062 189.515625 66.382812 L 189.515625 74.457031 C 189.515625 74.722656 189.460938 74.980469 189.359375 75.230469 C 189.257812 75.476562 189.113281 75.695312 188.921875 75.882812 C 188.734375 76.074219 188.515625 76.21875 188.269531 76.320312 C 188.019531 76.421875 187.761719 76.476562 187.496094 76.476562 C 187.226562 76.476562 186.96875 76.421875 186.722656 76.320312 C 186.476562 76.21875 186.257812 76.074219 186.066406 75.882812 C 185.878906 75.695312 185.734375 75.476562 185.628906 75.230469 C 185.527344 74.980469 185.476562 74.722656 185.476562 74.457031 L 185.476562 66.382812 C 183.535156 66.414062 181.597656 66.492188 179.664062 66.617188 C 177.726562 66.742188 175.792969 66.914062 173.867188 67.132812 C 171.9375 67.351562 170.015625 67.617188 168.101562 67.925781 C 166.183594 68.238281 164.277344 68.59375 162.378906 68.996094 C 160.480469 69.398438 158.59375 69.84375 156.71875 70.335938 C 154.839844 70.828125 152.976562 71.367188 151.125 71.949219 C 149.273438 72.53125 147.4375 73.160156 145.617188 73.828125 C 143.796875 74.5 141.992188 75.214844 140.207031 75.972656 C 138.421875 76.730469 136.652344 77.527344 134.90625 78.371094 C 133.15625 79.214844 131.429688 80.097656 129.726562 81.023438 C 128.019531 81.949219 126.335938 82.914062 124.679688 83.917969 C 123.019531 84.925781 121.386719 85.972656 119.777344 87.054688 C 118.167969 88.140625 116.585938 89.261719 115.03125 90.425781 C 113.476562 91.585938 111.949219 92.78125 110.453125 94.015625 C 108.953125 95.25 107.488281 96.519531 106.050781 97.824219 C 104.613281 99.128906 103.210938 100.46875 101.839844 101.839844 C 100.46875 103.210938 99.128906 104.613281 97.824219 106.050781 C 96.519531 107.488281 95.25 108.953125 94.015625 110.453125 C 92.78125 111.949219 91.585938 113.476562 90.425781 115.03125 C 89.261719 116.585938 88.140625 118.167969 87.054688 119.777344 C 85.972656 121.386719 84.925781 123.019531 83.917969 124.679688 C 82.914062 126.335938 81.949219 128.019531 81.023438 129.726562 C 80.097656 131.429688 79.214844 133.15625 78.371094 134.90625 C 77.527344 136.652344 76.730469 138.421875 75.972656 140.207031 C 75.214844 141.992188 74.5 143.796875 73.828125 145.617188 C 73.160156 147.4375 72.53125 149.273438 71.949219 151.125 C 71.367188 152.976562 70.832031 154.839844 70.335938 156.71875 C 69.84375 158.59375 69.398438 160.480469 68.996094 162.378906 C 68.59375 164.277344 68.238281 166.183594 67.925781 168.101562 C 67.617188 170.015625 67.351562 171.9375 67.132812 173.867188 C 66.914062 175.792969 66.742188 177.726562 66.617188 179.664062 C 66.492188 181.597656 66.414062 183.535156 66.382812 185.476562 L 74.457031 185.476562 C 74.722656 185.476562 74.980469 185.527344 75.230469 185.628906 C 75.476562 185.734375 75.695312 185.878906 75.882812 186.066406 C 76.074219 186.257812 76.21875 186.476562 76.320312 186.722656 C 76.421875 186.96875 76.476562 187.226562 76.476562 187.496094 C 76.476562 187.761719 76.421875 188.019531 76.320312 188.269531 C 76.21875 188.515625 76.074219 188.734375 75.882812 188.921875 C 75.695312 189.113281 75.476562 189.257812 75.230469 189.359375 C 74.980469 189.460938 74.722656 189.515625 74.457031 189.515625 L 66.382812 189.515625 C 66.414062 191.453125 66.492188 193.390625 66.617188 195.328125 C 66.742188 197.265625 66.914062 199.195312 67.132812 201.125 C 67.351562 203.054688 67.617188 204.976562 67.925781 206.890625 C 68.238281 208.804688 68.59375 210.710938 68.996094 212.609375 C 69.398438 214.507812 69.84375 216.398438 70.335938 218.273438 C 70.832031 220.148438 71.367188 222.015625 71.949219 223.863281 C 72.53125 225.714844 73.160156 227.550781 73.828125 229.371094 C 74.5 231.191406 75.214844 232.996094 75.972656 234.785156 C 76.730469 236.570312 77.527344 238.335938 78.371094 240.085938 C 79.214844 241.832031 80.097656 243.558594 81.023438 245.265625 C 81.949219 246.972656 82.914062 248.652344 83.917969 250.3125 C 84.925781 251.972656 85.972656 253.605469 87.054688 255.214844 C 88.140625 256.824219 89.261719 258.40625 90.425781 259.960938 C 91.585938 261.515625 92.78125 263.042969 94.015625 264.539062 C 95.25 266.035156 96.519531 267.503906 97.824219 268.9375 C 99.128906 270.375 100.46875 271.78125 101.839844 273.152344 C 103.210938 274.523438 104.613281 275.863281 106.050781 277.167969 C 107.488281 278.472656 108.953125 279.742188 110.453125 280.976562 C 111.949219 282.207031 113.476562 283.40625 115.03125 284.566406 C 116.585938 285.726562 118.167969 286.851562 119.777344 287.933594 C 121.386719 289.019531 123.019531 290.066406 124.679688 291.070312 C 126.335938 292.078125 128.019531 293.042969 129.726562 293.96875 C 131.429688 294.894531 133.15625 295.777344 134.90625 296.621094 C 136.652344 297.460938 138.421875 298.261719 140.207031 299.019531 C 141.992188 299.777344 143.796875 300.492188 145.617188 301.160156 C 147.4375 301.832031 149.273438 302.457031 151.125 303.039062 C 152.976562 303.625 154.839844 304.160156 156.71875 304.652344 C 158.59375 305.148438 160.480469 305.59375 162.378906 305.996094 C 164.277344 306.398438 166.183594 306.753906 168.101562 307.066406 C 170.015625 307.375 171.9375 307.640625 173.867188 307.859375 C 175.792969 308.074219 177.726562 308.246094 179.664062 308.371094 C 181.597656 308.496094 183.535156 308.578125 185.476562 308.609375 L 185.476562 300.535156 C 185.476562 300.265625 185.527344 300.007812 185.628906 299.761719 C 185.734375 299.515625 185.878906 299.296875 186.066406 299.105469 C 186.257812 298.917969 186.476562 298.773438 186.722656 298.667969 C 186.96875 298.566406 187.226562 298.515625 187.496094 298.515625 C 187.761719 298.515625 188.019531 298.566406 188.269531 298.667969 C 188.515625 298.773438 188.734375 298.917969 188.921875 299.105469 C 189.113281 299.296875 189.257812 299.515625 189.359375 299.761719 C 189.460938 300.007812 189.515625 300.265625 189.515625 300.535156 L 189.515625 308.609375 C 191.453125 308.578125 193.390625 308.496094 195.328125 308.371094 C 197.265625 308.246094 199.195312 308.074219 201.125 307.859375 C 203.054688 307.640625 204.976562 307.375 206.890625 307.066406 C 208.804688 306.753906 210.710938 306.398438 212.609375 305.996094 C 214.507812 305.59375 216.398438 305.144531 218.273438 304.652344 C 220.148438 304.160156 222.015625 303.625 223.863281 303.039062 C 225.714844 302.457031 227.550781 301.832031 229.371094 301.160156 C 231.191406 300.492188 232.996094 299.777344 234.785156 299.019531 C 236.570312 298.261719 238.335938 297.460938 240.085938 296.621094 C 241.832031 295.777344 243.558594 294.894531 245.265625 293.96875 C 246.972656 293.042969 248.652344 292.078125 250.3125 291.070312 C 251.972656 290.066406 253.605469 289.019531 255.214844 287.933594 C 256.824219 286.851562 258.40625 285.726562 259.960938 284.566406 C 261.515625 283.40625 263.042969 282.207031 264.539062 280.976562 C 266.035156 279.742188 267.503906 278.472656 268.9375 277.167969 C 270.375 275.863281 271.78125 274.523438 273.152344 273.152344 C 274.523438 271.78125 275.863281 270.375 277.167969 268.9375 C 278.472656 267.503906 279.742188 266.035156 280.976562 264.539062 C 282.207031 263.042969 283.40625 261.515625 284.566406 259.960938 C 285.726562 258.40625 286.851562 256.824219 287.933594 255.214844 C 289.019531 253.605469 290.066406 251.972656 291.070312 250.3125 C 292.078125 248.652344 293.042969 246.972656 293.96875 245.265625 C 294.894531 243.558594 295.777344 241.832031 296.621094 240.085938 C 297.460938 238.335938 298.261719 236.570312 299.019531 234.785156 C 299.777344 232.996094 300.492188 231.191406 301.160156 229.371094 C 301.832031 227.550781 302.457031 225.714844 303.039062 223.863281 C 303.625 222.015625 304.160156 220.148438 304.652344 218.273438 C 305.148438 216.398438 305.59375 214.507812 305.996094 212.609375 C 306.398438 210.710938 306.753906 208.804688 307.066406 206.890625 C 307.375 204.976562 307.640625 203.054688 307.859375 201.125 C 308.074219 199.195312 308.246094 197.265625 308.371094 195.328125 C 308.496094 193.390625 308.578125 191.453125 308.609375 189.515625 L 300.535156 189.515625 C 300.265625 189.515625 300.007812 189.460938 299.761719 189.359375 C 299.515625 189.257812 299.296875 189.113281 299.105469 188.921875 C 298.917969 188.734375 298.773438 188.515625 298.667969 188.269531 C 298.566406 188.019531 298.515625 187.761719 298.515625 187.496094 C 298.515625 187.226562 298.566406 186.96875 298.667969 186.722656 C 298.773438 186.476562 298.917969 186.257812 299.105469 186.066406 C 299.296875 185.878906 299.515625 185.734375 299.761719 185.628906 C 300.007812 185.527344 300.265625 185.476562 300.535156 185.476562 Z M 187.496094 288.421875 C 185.84375 288.421875 184.191406 288.382812 182.542969 288.300781 C 180.894531 288.21875 179.246094 288.097656 177.601562 287.9375 C 175.957031 287.773438 174.320312 287.574219 172.6875 287.332031 C 171.050781 287.089844 169.425781 286.804688 167.804688 286.484375 C 166.183594 286.160156 164.574219 285.800781 162.972656 285.398438 C 161.371094 284.996094 159.777344 284.558594 158.199219 284.078125 C 156.617188 283.597656 155.050781 283.078125 153.492188 282.523438 C 151.9375 281.96875 150.398438 281.371094 148.871094 280.742188 C 147.347656 280.109375 145.835938 279.4375 144.34375 278.734375 C 142.851562 278.027344 141.375 277.285156 139.917969 276.503906 C 138.460938 275.726562 137.023438 274.914062 135.609375 274.0625 C 134.191406 273.214844 132.796875 272.332031 131.421875 271.414062 C 130.050781 270.496094 128.699219 269.546875 127.371094 268.5625 C 126.046875 267.578125 124.746094 266.5625 123.46875 265.511719 C 122.191406 264.464844 120.941406 263.386719 119.714844 262.277344 C 118.492188 261.167969 117.296875 260.03125 116.128906 258.863281 C 114.960938 257.695312 113.820312 256.5 112.714844 255.273438 C 111.605469 254.050781 110.523438 252.800781 109.476562 251.523438 C 108.429688 250.246094 107.414062 248.945312 106.429688 247.617188 C 105.445312 246.292969 104.496094 244.941406 103.578125 243.566406 C 102.660156 242.195312 101.777344 240.800781 100.925781 239.382812 C 100.078125 237.964844 99.265625 236.527344 98.484375 235.074219 C 97.707031 233.617188 96.964844 232.140625 96.257812 230.648438 C 95.550781 229.15625 94.882812 227.644531 94.25 226.117188 C 93.617188 224.59375 93.023438 223.050781 92.46875 221.496094 C 91.910156 219.941406 91.394531 218.375 90.914062 216.792969 C 90.433594 215.210938 89.992188 213.621094 89.59375 212.019531 C 89.191406 210.417969 88.828125 208.804688 88.507812 207.183594 C 88.183594 205.566406 87.902344 203.9375 87.660156 202.304688 C 87.417969 200.671875 87.214844 199.03125 87.054688 197.386719 C 86.890625 195.746094 86.769531 194.097656 86.6875 192.449219 C 86.609375 190.796875 86.566406 189.148438 86.566406 187.496094 C 86.566406 185.84375 86.609375 184.191406 86.6875 182.542969 C 86.769531 180.894531 86.890625 179.246094 87.054688 177.601562 C 87.214844 175.957031 87.417969 174.320312 87.660156 172.6875 C 87.902344 171.050781 88.183594 169.425781 88.507812 167.804688 C 88.828125 166.183594 89.191406 164.574219 89.59375 162.972656 C 89.992188 161.371094 90.433594 159.777344 90.914062 158.199219 C 91.394531 156.617188 91.910156 155.050781 92.46875 153.492188 C 93.023438 151.9375 93.617188 150.398438 94.25 148.871094 C 94.882812 147.347656 95.550781 145.835938 96.257812 144.34375 C 96.964844 142.851562 97.707031 141.375 98.484375 139.917969 C 99.265625 138.460938 100.078125 137.023438 100.925781 135.609375 C 101.777344 134.191406 102.660156 132.796875 103.578125 131.421875 C 104.496094 130.050781 105.445312 128.699219 106.429688 127.371094 C 107.414062 126.046875 108.429688 124.746094 109.476562 123.46875 C 110.523438 122.191406 111.605469 120.941406 112.714844 119.714844 C 113.820312 118.492188 114.960938 117.296875 116.128906 116.128906 C 117.296875 114.960938 118.492188 113.820312 119.714844 112.714844 C 120.941406 111.605469 122.191406 110.523438 123.46875 109.476562 C 124.746094 108.429688 126.046875 107.414062 127.371094 106.429688 C 128.699219 105.445312 130.050781 104.496094 131.421875 103.578125 C 132.796875 102.660156 134.191406 101.777344 135.609375 100.925781 C 137.023438 100.078125 138.460938 99.265625 139.917969 98.484375 C 141.375 97.707031 142.851562 96.964844 144.34375 96.257812 C 145.835938 95.550781 147.347656 94.882812 148.871094 94.25 C 150.398438 93.617188 151.9375 93.023438 153.492188 92.46875 C 155.050781 91.910156 156.617188 91.394531 158.199219 90.914062 C 159.777344 90.433594 161.371094 89.992188 162.972656 89.59375 C 164.574219 89.191406 166.183594 88.828125 167.804688 88.507812 C 169.425781 88.183594 171.050781 87.902344 172.6875 87.660156 C 174.320312 87.417969 175.957031 87.214844 177.601562 87.054688 C 179.246094 86.890625 180.894531 86.769531 182.542969 86.6875 C 184.191406 86.609375 185.84375 86.566406 187.496094 86.566406 C 189.148438 86.566406 190.796875 86.609375 192.449219 86.6875 C 194.097656 86.769531 195.746094 86.890625 197.386719 87.054688 C 199.03125 87.214844 200.671875 87.417969 202.304688 87.660156 C 203.9375 87.902344 205.566406 88.183594 207.183594 88.507812 C 208.804688 88.828125 210.417969 89.191406 212.019531 89.59375 C 213.621094 89.992188 215.210938 90.433594 216.792969 90.914062 C 218.375 91.394531 219.941406 91.910156 221.496094 92.46875 C 223.050781 93.023438 224.59375 93.617188 226.117188 94.25 C 227.644531 94.882812 229.15625 95.550781 230.648438 96.257812 C 232.140625 96.964844 233.617188 97.707031 235.074219 98.484375 C 236.527344 99.265625 237.964844 100.078125 239.382812 100.925781 C 240.800781 101.777344 242.195312 102.660156 243.566406 103.578125 C 244.941406 104.496094 246.292969 105.445312 247.617188 106.429688 C 248.945312 107.414062 250.246094 108.429688 251.523438 109.476562 C 252.800781 110.523438 254.050781 111.605469 255.273438 112.714844 C 256.5 113.820312 257.695312 114.960938 258.863281 116.128906 C 260.03125 117.296875 261.167969 118.492188 262.277344 119.714844 C 263.386719 120.941406 264.464844 122.191406 265.511719 123.46875 C 266.5625 124.746094 267.578125 126.046875 268.5625 127.371094 C 269.546875 128.699219 270.496094 130.050781 271.414062 131.421875 C 272.332031 132.796875 273.214844 134.191406 274.0625 135.609375 C 274.914062 137.023438 275.726562 138.460938 276.503906 139.917969 C 277.285156 141.375 278.027344 142.851562 278.734375 144.34375 C 279.4375 145.835938 280.109375 147.347656 280.742188 148.871094 C 281.371094 150.398438 281.96875 151.9375 282.523438 153.492188 C 283.078125 155.050781 283.597656 156.617188 284.078125 158.199219 C 284.558594 159.777344 284.996094 161.371094 285.398438 162.972656 C 285.800781 164.574219 286.160156 166.183594 286.484375 167.804688 C 286.804688 169.425781 287.089844 171.050781 287.332031 172.6875 C 287.574219 174.320312 287.773438 175.957031 287.9375 177.601562 C 288.097656 179.246094 288.21875 180.894531 288.300781 182.542969 C 288.382812 184.191406 288.421875 185.84375 288.421875 187.496094 C 288.421875 189.148438 288.382812 190.796875 288.300781 192.449219 C 288.21875 194.097656 288.097656 195.746094 287.9375 197.386719 C 287.773438 199.03125 287.574219 200.671875 287.332031 202.304688 C 287.089844 203.9375 286.804688 205.566406 286.484375 207.183594 C 286.160156 208.804688 285.800781 210.417969 285.398438 212.019531 C 284.996094 213.621094 284.558594 215.210938 284.078125 216.792969 C 283.597656 218.375 283.078125 219.941406 282.523438 221.496094 C 281.96875 223.050781 281.371094 224.59375 280.742188 226.117188 C 280.109375 227.644531 279.4375 229.15625 278.734375 230.648438 C 278.027344 232.140625 277.285156 233.617188 276.503906 235.074219 C 275.726562 236.527344 274.914062 237.964844 274.0625 239.382812 C 273.214844 240.800781 272.332031 242.195312 271.414062 243.566406 C 270.496094 244.941406 269.546875 246.292969 268.5625 247.617188 C 267.578125 248.945312 266.5625 250.246094 265.511719 251.523438 C 264.464844 252.800781 263.386719 254.050781 262.277344 255.273438 C 261.167969 256.5 260.03125 257.695312 258.863281 258.863281 C 257.695312 260.03125 256.5 261.167969 255.273438 262.277344 C 254.050781 263.386719 252.800781 264.464844 251.523438 265.511719 C 250.246094 266.5625 248.945312 267.578125 247.617188 268.5625 C 246.292969 269.546875 244.941406 270.496094 243.566406 271.414062 C 242.195312 272.332031 240.800781 273.214844 239.382812 274.0625 C 237.964844 274.914062 236.527344 275.726562 235.074219 276.503906 C 233.617188 277.285156 232.140625 278.027344 230.648438 278.734375 C 229.15625 279.4375 227.644531 280.109375 226.117188 280.742188 C 224.59375 281.371094 223.050781 281.96875 221.496094 282.523438 C 219.941406 283.078125 218.375 283.597656 216.792969 284.078125 C 215.210938 284.558594 213.621094 284.996094 212.019531 285.398438 C 210.417969 285.800781 208.804688 286.160156 207.183594 286.484375 C 205.566406 286.804688 203.9375 287.089844 202.304688 287.332031 C 200.671875 287.574219 199.03125 287.773438 197.386719 287.9375 C 195.746094 288.097656 194.097656 288.21875 192.449219 288.300781 C 190.796875 288.382812 189.148438 288.421875 187.496094 288.421875 Z M 187.496094 288.421875 " fill-opacity="1" fill-rule="nonzero"/><path fill="#0a1f44" d="M 187.496094 66.382812 C 120.667969 66.382812 66.382812 120.667969 66.382812 187.496094 C 66.382812 254.320312 120.667969 308.609375 187.496094 308.609375 C 254.320312 308.609375 308.609375 254.320312 308.609375 187.496094 C 308.609375 120.667969 254.320312 66.382812 187.496094 66.382812 Z M 187.496094 76.476562 C 248.867188 76.476562 298.515625 126.125 298.515625 187.496094 C 298.515625 248.867188 248.867188 298.515625 187.496094 298.515625 C 126.125 298.515625 76.476562 248.867188 76.476562 187.496094 C 76.476562 126.125 126.125 76.476562 187.496094 76.476562 Z M 187.496094 76.476562 " fill-opacity="1" fill-rule="nonzero"/></g></svg>