<svg xmlns="http://www.w3.org/2000/svg" xmlns:xlink="http://www.w3.org/1999/xlink" width="500" zoomAndPan="magnify" viewBox="0 0 375 374.999991" height="500" preserveAspectRatio="xMidYMid meet" version="1.0"><defs><clipPath id="6811e9fba8"><path d="M 30 69.765625 L 344.996094 69.765625 L 344.996094 297 L 30 297 Z M 30 69.765625 " clip-rule="nonzero"/></clipPath><clipPath id="e82578211d"><path d="M 40 294 L 335 294 L 335 305.265625 L 40 305.265625 Z M 40 294 " clip-rule="nonzero"/></clipPath><clipPath id="48fa1a4be2"><path d="M 97.945312 111.375 L 277.195312 111.375 L 277.195312 282.375 L 97.945312 282.375 Z M 97.945312 111.375 " clip-rule="nonzero"/></clipPath></defs><rect x="-37.5" width="450" fill="#ffffff" y="-37.499999" height="449.999989" fill-opacity="1"/><rect x="-37.5" width="450" fill="#ffffff" y="-37.499999" height="449.999989" fill-opacity="1"/><g clip-path="url(#6811e9fba8)"><path fill="#facc15" d="M 342.140625 161.015625 L 189.488281 70.433594 C 188.925781 70.105469 188.316406 69.914062 187.703125 69.867188 C 186.847656 69.796875 185.984375 69.992188 185.234375 70.433594 L 32.410156 161.015625 C 31.460938 161.582031 30.773438 162.496094 30.5 163.566406 C 30.230469 164.636719 30.390625 165.769531 30.957031 166.722656 L 34.804688 173.210938 C 35.582031 174.519531 36.96875 175.246094 38.386719 175.246094 C 39.109375 175.246094 39.839844 175.058594 40.503906 174.667969 L 54.652344 166.28125 L 54.652344 296.070312 L 70.308594 296.070312 L 70.308594 164.554688 L 187.351562 95.878906 L 304.246094 164.539062 L 304.246094 296.070312 L 319.902344 296.070312 L 319.902344 166.277344 L 334.042969 174.667969 C 334.992188 175.230469 336.128906 175.390625 337.195312 175.117188 C 338.265625 174.84375 339.183594 174.15625 339.75 173.210938 L 343.597656 166.722656 C 344.769531 164.746094 344.121094 162.1875 342.140625 161.015625 " fill-opacity="1" fill-rule="nonzero"/></g><g clip-path="url(#e82578211d)"><path fill="#facc15" d="M 40.527344 305.230469 L 40.527344 294.835938 L 334.027344 294.835938 L 334.027344 305.230469 L 40.527344 305.230469 " fill-opacity="1" fill-rule="nonzero"/></g><g clip-path="url(#48fa1a4be2)"><path fill="#0a1f44" d="M 275.582031 263.769531 L 266.847656 263.769531 L 266.847656 178.457031 L 273.117188 182.554688 C 273.351562 182.707031 273.621094 182.785156 273.894531 182.785156 C 274.125 182.785156 274.359375 182.730469 274.570312 182.613281 C 275.027344 182.363281 275.3125 181.886719 275.3125 181.363281 L 275.3125 169.386719 C 275.3125 168.90625 275.070312 168.460938 274.671875 168.199219 L 188.273438 111.75 C 187.800781 111.441406 187.1875 111.441406 186.71875 111.75 L 100.320312 168.199219 C 99.917969 168.460938 99.675781 168.90625 99.675781 169.386719 L 99.675781 181.363281 C 99.675781 181.886719 99.960938 182.367188 100.421875 182.613281 C 100.878906 182.859375 101.4375 182.839844 101.875 182.554688 L 108.144531 178.457031 L 108.144531 263.769531 L 99.40625 263.769531 C 98.621094 263.769531 97.984375 264.40625 97.984375 265.191406 L 97.984375 280.59375 C 97.984375 281.378906 98.621094 282.011719 99.40625 282.011719 L 275.582031 282.011719 C 276.367188 282.011719 277.003906 281.378906 277.003906 280.59375 L 277.003906 265.191406 C 277.003906 264.40625 276.367188 263.769531 275.582031 263.769531 Z M 241.980469 234.6875 L 133.007812 234.6875 L 133.007812 222.140625 L 241.980469 222.140625 Z M 133.007812 237.527344 L 241.980469 237.527344 L 241.980469 250.089844 L 133.007812 250.089844 Z M 127.933594 203.898438 L 127.933594 187.929688 L 247.054688 187.929688 L 247.054688 203.898438 Z M 241.980469 206.738281 L 241.980469 219.300781 L 133.007812 219.300781 L 133.007812 206.738281 Z M 133.007812 252.929688 L 241.980469 252.929688 L 241.980469 263.769531 L 133.007812 263.769531 Z M 264.003906 263.769531 L 244.824219 263.769531 L 244.824219 206.738281 L 248.476562 206.738281 C 249.257812 206.738281 249.894531 206.105469 249.894531 205.320312 L 249.894531 186.507812 C 249.894531 185.722656 249.257812 185.085938 248.476562 185.085938 L 126.515625 185.085938 C 125.730469 185.085938 125.09375 185.722656 125.09375 186.507812 L 125.09375 205.320312 C 125.09375 206.105469 125.730469 206.738281 126.515625 206.738281 L 130.164062 206.738281 L 130.164062 263.773438 L 110.984375 263.773438 L 110.984375 177.65625 L 264.003906 177.65625 Z M 102.515625 170.15625 L 187.496094 114.636719 L 272.472656 170.15625 L 272.472656 178.738281 L 188.273438 123.726562 C 187.800781 123.417969 187.1875 123.417969 186.71875 123.726562 L 102.515625 178.738281 Z M 102.515625 170.15625 " fill-opacity="1" fill-rule="nonzero"/></g></svg>