<svg xmlns="http://www.w3.org/2000/svg" xmlns:xlink="http://www.w3.org/1999/xlink" width="500" zoomAndPan="magnify" viewBox="0 0 375 374.999991" height="500" preserveAspectRatio="xMidYMid meet" version="1.0"><defs><clipPath id="6cc431bd97"><path d="M 48.761719 112 L 326 112 L 326 268 L 48.761719 268 Z M 48.761719 112 " clip-rule="nonzero"/></clipPath><clipPath id="2e08478ba2"><path d="M 57 275 L 66 275 L 66 305.308594 L 57 305.308594 Z M 57 275 " clip-rule="nonzero"/></clipPath><clipPath id="659801d9c7"><path d="M 99 221 L 108 221 L 108 305.308594 L 99 305.308594 Z M 99 221 " clip-rule="nonzero"/></clipPath><clipPath id="5a743ae424"><path d="M 141 242 L 150 242 L 150 305.308594 L 141 305.308594 Z M 141 242 " clip-rule="nonzero"/></clipPath><clipPath id="e636020b60"><path d="M 48.761719 49 L 192 49 L 192 192 L 48.761719 192 Z M 48.761719 49 " clip-rule="nonzero"/></clipPath><clipPath id="0187046289"><path d="M 174 217 L 326 217 L 326 305.308594 L 174 305.308594 Z M 174 217 " clip-rule="nonzero"/></clipPath></defs><rect x="-37.5" width="450" fill="#ffffff" y="-37.499999" height="449.999989" fill-opacity="1"/><rect x="-37.5" width="450" fill="#ffffff" y="-37.499999" height="449.999989" fill-opacity="1"/><g clip-path="url(#6cc431bd97)"><path fill="#0a1f44" d="M 180.613281 198.449219 C 182.546875 199.625 184.855469 200.339844 187.289062 200.339844 C 194.214844 200.339844 199.882812 194.671875 199.882812 187.746094 C 199.882812 186.570312 199.714844 185.480469 199.378906 184.386719 L 221.964844 168.605469 C 224.019531 170.074219 226.582031 170.953125 229.269531 170.953125 C 232.289062 170.953125 235.101562 169.863281 237.285156 168.058594 L 258.90625 181.027344 C 258.738281 181.828125 258.652344 182.707031 258.652344 183.546875 C 258.652344 190.472656 264.320312 196.140625 271.246094 196.140625 C 278.171875 196.140625 283.839844 190.472656 283.839844 183.546875 C 283.839844 180.859375 282.957031 178.34375 281.53125 176.285156 L 309.738281 136.867188 C 310.832031 137.203125 312.007812 137.371094 313.222656 137.371094 C 320.152344 137.371094 325.816406 131.703125 325.816406 124.777344 C 325.816406 117.851562 320.152344 112.183594 313.222656 112.183594 C 306.296875 112.183594 300.628906 117.851562 300.628906 124.777344 C 300.628906 127.464844 301.511719 129.984375 302.941406 132.039062 L 274.730469 171.457031 C 273.640625 171.121094 272.464844 170.953125 271.246094 170.953125 C 268.222656 170.953125 265.410156 172.046875 263.226562 173.851562 L 241.609375 160.878906 C 241.777344 160.082031 241.859375 159.199219 241.859375 158.359375 C 241.859375 151.433594 236.195312 145.765625 229.269531 145.765625 C 222.339844 145.765625 216.675781 151.433594 216.675781 158.359375 C 216.675781 159.535156 216.84375 160.628906 217.179688 161.71875 L 194.59375 177.503906 C 192.535156 176.035156 189.976562 175.152344 187.289062 175.152344 C 180.363281 175.152344 174.695312 180.820312 174.695312 187.746094 C 174.695312 189.214844 174.949219 190.558594 175.453125 191.859375 L 151.984375 210.625 C 150.054688 209.449219 147.746094 208.734375 145.3125 208.734375 C 141.953125 208.734375 138.847656 210.078125 136.578125 212.304688 L 115.800781 201.890625 C 115.882812 201.386719 115.925781 200.886719 115.925781 200.382812 C 115.925781 193.453125 110.257812 187.789062 103.332031 187.789062 C 96.40625 187.789062 90.738281 193.453125 90.738281 200.382812 C 90.738281 202.859375 91.496094 205.25 92.753906 207.222656 L 65.257812 243.03125 C 64.042969 242.570312 62.699219 242.359375 61.355469 242.359375 C 54.429688 242.359375 48.761719 248.027344 48.761719 254.953125 C 48.761719 261.878906 54.429688 267.546875 61.355469 267.546875 C 68.28125 267.546875 73.949219 261.878906 73.949219 254.953125 C 73.949219 252.476562 73.191406 250.082031 71.933594 248.109375 L 99.429688 212.304688 C 100.644531 212.765625 101.988281 212.976562 103.332031 212.976562 C 106.691406 212.976562 109.796875 211.632812 112.0625 209.40625 L 132.84375 219.816406 C 132.757812 220.320312 132.71875 220.824219 132.71875 221.328125 C 132.71875 228.253906 138.382812 233.921875 145.3125 233.921875 C 152.238281 233.921875 157.90625 228.253906 157.90625 221.328125 C 157.90625 219.859375 157.652344 218.515625 157.148438 217.214844 Z M 180.613281 198.449219 " fill-opacity="1" fill-rule="nonzero"/></g><g clip-path="url(#2e08478ba2)"><path fill="#0a1f44" d="M 61.355469 275.898438 C 59.046875 275.898438 57.15625 277.789062 57.15625 280.097656 L 57.15625 301.085938 C 57.15625 303.394531 59.046875 305.285156 61.355469 305.285156 C 63.664062 305.285156 65.550781 303.394531 65.550781 301.085938 L 65.550781 280.097656 C 65.550781 277.789062 63.664062 275.898438 61.355469 275.898438 Z M 61.355469 275.898438 " fill-opacity="1" fill-rule="nonzero"/></g><g clip-path="url(#659801d9c7)"><path fill="#0a1f44" d="M 103.332031 221.328125 C 101.023438 221.328125 99.136719 223.21875 99.136719 225.527344 L 99.136719 301.085938 C 99.136719 303.394531 101.023438 305.285156 103.332031 305.285156 C 105.640625 305.285156 107.53125 303.394531 107.53125 301.085938 L 107.53125 225.527344 C 107.53125 223.21875 105.640625 221.328125 103.332031 221.328125 Z M 103.332031 221.328125 " fill-opacity="1" fill-rule="nonzero"/></g><g clip-path="url(#5a743ae424)"><path fill="#0a1f44" d="M 145.3125 242.316406 C 143.003906 242.316406 141.113281 244.207031 141.113281 246.515625 L 141.113281 301.085938 C 141.113281 303.394531 143.003906 305.285156 145.3125 305.285156 C 147.621094 305.285156 149.507812 303.394531 149.507812 301.085938 L 149.507812 246.515625 C 149.507812 244.207031 147.621094 242.316406 145.3125 242.316406 Z M 145.3125 242.316406 " fill-opacity="1" fill-rule="nonzero"/></g><path fill="#0a1f44" d="M 225.070312 183.546875 L 225.070312 204.535156 C 225.070312 206.847656 226.957031 208.734375 229.269531 208.734375 C 231.578125 208.734375 233.464844 206.847656 233.464844 204.535156 L 233.464844 183.546875 C 233.464844 181.238281 231.578125 179.351562 229.269531 179.351562 C 226.957031 179.351562 225.070312 181.238281 225.070312 183.546875 Z M 225.070312 183.546875 " fill-opacity="1" fill-rule="nonzero"/><path fill="#0a1f44" d="M 309.027344 149.964844 L 309.027344 204.535156 C 309.027344 206.847656 310.914062 208.734375 313.222656 208.734375 C 315.53125 208.734375 317.421875 206.847656 317.421875 204.535156 L 317.421875 149.964844 C 317.421875 147.65625 315.53125 145.765625 313.222656 145.765625 C 310.914062 145.765625 309.027344 147.65625 309.027344 149.964844 Z M 309.027344 149.964844 " fill-opacity="1" fill-rule="nonzero"/><g clip-path="url(#e636020b60)"><path fill="#0a1f44" d="M 88.890625 184.765625 C 90.992188 185.773438 93.511719 184.890625 94.515625 182.835938 C 95.523438 180.734375 94.683594 178.257812 92.585938 177.210938 C 70.714844 166.546875 57.15625 144.84375 57.15625 120.582031 C 57.15625 85.863281 85.40625 57.613281 120.125 57.613281 C 154.839844 57.613281 183.089844 85.863281 183.089844 120.582031 C 183.089844 155.296875 157.148438 181.363281 124.070312 183.421875 C 121.761719 183.546875 120 185.5625 120.125 187.871094 C 120.25 190.097656 122.097656 191.816406 124.320312 191.816406 C 124.40625 191.816406 124.488281 191.816406 124.574219 191.816406 C 162.101562 189.507812 191.488281 158.234375 191.488281 120.582031 C 191.488281 82.925781 159.457031 49.21875 120.125 49.21875 C 80.789062 49.21875 48.761719 81.246094 48.761719 120.582031 C 48.761719 148.117188 64.125 172.71875 88.890625 184.765625 Z M 88.890625 184.765625 " fill-opacity="1" fill-rule="nonzero"/></g><path fill="#0a1f44" d="M 174.695312 120.582031 C 174.695312 90.480469 150.222656 66.007812 120.125 66.007812 C 90.027344 66.007812 65.550781 90.480469 65.550781 120.582031 C 65.550781 150.679688 90.027344 175.152344 120.125 175.152344 C 150.222656 175.152344 174.695312 150.679688 174.695312 120.582031 Z M 128.519531 116.382812 C 137.796875 116.382812 145.3125 123.898438 145.3125 133.175781 C 145.3125 142.449219 137.796875 149.964844 128.519531 149.964844 L 124.320312 149.964844 L 124.320312 154.164062 C 124.320312 156.472656 122.433594 158.359375 120.125 158.359375 C 117.816406 158.359375 115.925781 156.472656 115.925781 154.164062 L 115.925781 149.964844 L 111.726562 149.964844 C 102.453125 149.964844 94.9375 142.449219 94.9375 133.175781 C 94.9375 130.863281 96.824219 128.976562 99.136719 128.976562 C 101.445312 128.976562 103.332031 130.863281 103.332031 133.175781 C 103.332031 137.792969 107.109375 141.570312 111.726562 141.570312 L 115.925781 141.570312 L 115.925781 124.777344 L 111.726562 124.777344 C 102.453125 124.777344 94.9375 117.265625 94.9375 107.988281 C 94.9375 98.710938 102.453125 91.195312 111.726562 91.195312 L 115.925781 91.195312 L 115.925781 86.996094 C 115.925781 84.6875 117.816406 82.800781 120.125 82.800781 C 122.433594 82.800781 124.320312 84.6875 124.320312 86.996094 L 124.320312 91.195312 L 128.519531 91.195312 C 137.796875 91.195312 145.3125 98.710938 145.3125 107.988281 C 145.3125 110.296875 143.421875 112.183594 141.113281 112.183594 C 138.804688 112.183594 136.914062 110.296875 136.914062 107.988281 C 136.914062 103.371094 133.136719 99.589844 128.519531 99.589844 L 124.320312 99.589844 L 124.320312 116.382812 Z M 128.519531 116.382812 " fill-opacity="1" fill-rule="nonzero"/><path fill="#0a1f44" d="M 124.320312 141.570312 L 128.519531 141.570312 C 133.136719 141.570312 136.914062 137.792969 136.914062 133.175781 C 136.914062 128.554688 133.136719 124.777344 128.519531 124.777344 L 124.320312 124.777344 Z M 124.320312 141.570312 " fill-opacity="1" fill-rule="nonzero"/><path fill="#0a1f44" d="M 103.332031 107.988281 C 103.332031 112.605469 107.109375 116.382812 111.726562 116.382812 L 115.925781 116.382812 L 115.925781 99.589844 L 111.726562 99.589844 C 107.109375 99.589844 103.332031 103.371094 103.332031 107.988281 Z M 103.332031 107.988281 " fill-opacity="1" fill-rule="nonzero"/><g clip-path="url(#0187046289)"><path fill="#0a1f44" d="M 313.222656 217.128906 L 187.289062 217.128906 C 180.363281 217.128906 174.695312 222.796875 174.695312 229.722656 L 174.695312 292.691406 C 174.695312 299.617188 180.363281 305.285156 187.289062 305.285156 L 313.222656 305.285156 C 320.152344 305.285156 325.816406 299.617188 325.816406 292.691406 L 325.816406 229.722656 C 325.816406 222.796875 320.152344 217.128906 313.222656 217.128906 Z M 236.738281 281.691406 C 238.210938 283.5 237.914062 286.144531 236.066406 287.570312 C 235.3125 288.199219 234.390625 288.492188 233.464844 288.492188 C 232.25 288.492188 231.03125 287.949219 230.191406 286.898438 L 214.660156 267.503906 L 204.082031 267.503906 L 204.082031 284.296875 C 204.082031 286.605469 202.191406 288.492188 199.882812 288.492188 C 197.574219 288.492188 195.683594 286.605469 195.683594 284.296875 L 195.683594 238.121094 C 195.683594 235.8125 197.574219 233.921875 199.882812 233.921875 L 220.871094 233.921875 C 230.148438 233.921875 237.664062 241.4375 237.664062 250.714844 C 237.664062 258.5625 232.289062 265.152344 224.984375 266.957031 Z M 288.039062 275.898438 C 288.039062 282.828125 282.371094 288.492188 275.445312 288.492188 L 258.652344 288.492188 C 251.726562 288.492188 246.058594 282.828125 246.058594 275.898438 L 246.058594 246.515625 C 246.058594 239.589844 251.726562 233.921875 258.652344 233.921875 L 275.445312 233.921875 C 282.371094 233.921875 288.039062 239.589844 288.039062 246.515625 Z M 304.828125 284.296875 C 304.828125 286.605469 302.941406 288.492188 300.628906 288.492188 C 298.320312 288.492188 296.433594 286.605469 296.433594 284.296875 L 296.433594 238.121094 C 296.433594 235.8125 298.320312 233.921875 300.628906 233.921875 C 302.941406 233.921875 304.828125 235.8125 304.828125 238.121094 Z M 304.828125 284.296875 " fill-opacity="1" fill-rule="nonzero"/></g><path fill="#0a1f44" d="M 220.871094 242.316406 L 204.082031 242.316406 L 204.082031 259.109375 L 220.871094 259.109375 C 225.488281 259.109375 229.269531 255.332031 229.269531 250.714844 C 229.269531 246.09375 225.488281 242.316406 220.871094 242.316406 Z M 220.871094 242.316406 " fill-opacity="1" fill-rule="nonzero"/><path fill="#0a1f44" d="M 258.652344 242.316406 L 275.445312 242.316406 C 275.71875 242.316406 275.992188 242.34375 276.261719 242.398438 C 276.53125 242.453125 276.796875 242.53125 277.050781 242.636719 C 277.304688 242.742188 277.546875 242.871094 277.777344 243.023438 C 278.003906 243.179688 278.21875 243.351562 278.414062 243.546875 C 278.605469 243.742188 278.78125 243.953125 278.933594 244.183594 C 279.085938 244.414062 279.214844 244.652344 279.320312 244.910156 C 279.425781 245.164062 279.507812 245.425781 279.5625 245.695312 C 279.613281 245.964844 279.640625 246.238281 279.640625 246.515625 L 279.640625 275.898438 C 279.640625 276.175781 279.613281 276.449219 279.5625 276.71875 C 279.507812 276.988281 279.425781 277.25 279.320312 277.507812 C 279.214844 277.761719 279.085938 278.003906 278.933594 278.230469 C 278.78125 278.460938 278.605469 278.671875 278.414062 278.867188 C 278.21875 279.0625 278.003906 279.238281 277.777344 279.390625 C 277.546875 279.542969 277.304688 279.671875 277.050781 279.777344 C 276.796875 279.882812 276.53125 279.964844 276.261719 280.015625 C 275.992188 280.070312 275.71875 280.097656 275.445312 280.097656 L 258.652344 280.097656 C 258.375 280.097656 258.105469 280.070312 257.832031 280.015625 C 257.5625 279.964844 257.300781 279.882812 257.046875 279.777344 C 256.792969 279.671875 256.550781 279.542969 256.320312 279.390625 C 256.089844 279.238281 255.878906 279.0625 255.683594 278.867188 C 255.488281 278.671875 255.316406 278.460938 255.160156 278.230469 C 255.007812 278.003906 254.878906 277.761719 254.773438 277.507812 C 254.667969 277.25 254.589844 276.988281 254.535156 276.71875 C 254.480469 276.449219 254.453125 276.175781 254.453125 275.898438 L 254.453125 246.515625 C 254.453125 246.238281 254.480469 245.964844 254.535156 245.695312 C 254.589844 245.425781 254.667969 245.164062 254.773438 244.910156 C 254.878906 244.652344 255.007812 244.414062 255.164062 244.183594 C 255.316406 243.953125 255.488281 243.742188 255.683594 243.546875 C 255.878906 243.351562 256.089844 243.179688 256.320312 243.023438 C 256.550781 242.871094 256.792969 242.742188 257.046875 242.636719 C 257.300781 242.53125 257.5625 242.453125 257.832031 242.398438 C 258.105469 242.34375 258.375 242.316406 258.652344 242.316406 Z M 258.652344 242.316406 " fill-opacity="1" fill-rule="nonzero"/><path fill="#0a1f44" d="M 262.851562 66.007812 L 275.445312 66.007812 C 275.445312 68.316406 277.332031 70.207031 279.640625 70.207031 C 281.949219 70.207031 283.839844 68.316406 283.839844 66.007812 L 283.839844 61.8125 C 283.839844 59.503906 281.949219 57.613281 279.640625 57.613281 L 272.96875 57.613281 L 292.234375 38.34375 L 311.503906 57.613281 L 304.828125 57.613281 C 302.519531 57.613281 300.628906 59.503906 300.628906 61.8125 L 300.628906 91.195312 C 300.628906 93.503906 302.519531 95.394531 304.828125 95.394531 C 307.136719 95.394531 309.027344 93.503906 309.027344 91.195312 L 309.027344 66.007812 L 321.621094 66.007812 C 323.300781 66.007812 324.851562 65 325.480469 63.40625 C 326.152344 61.851562 325.777344 60.046875 324.558594 58.832031 L 295.214844 29.488281 C 293.578125 27.851562 290.933594 27.851562 289.296875 29.488281 L 259.910156 58.871094 C 258.695312 60.089844 258.359375 61.894531 258.988281 63.449219 C 259.617188 65 261.171875 66.050781 262.851562 66.050781 Z M 262.851562 66.007812 " fill-opacity="1" fill-rule="nonzero"/><path fill="#0a1f44" d="M 187.289062 66.007812 L 199.882812 66.007812 L 199.882812 158.359375 C 199.882812 160.667969 201.773438 162.558594 204.082031 162.558594 C 206.390625 162.558594 208.277344 160.667969 208.277344 158.359375 L 208.277344 128.976562 L 225.070312 128.976562 L 225.070312 133.175781 C 225.070312 135.484375 226.957031 137.371094 229.269531 137.371094 C 231.578125 137.371094 233.464844 135.484375 233.464844 133.175781 L 233.464844 66.007812 L 246.058594 66.007812 C 247.738281 66.007812 249.292969 65 249.921875 63.40625 C 250.59375 61.851562 250.214844 60.046875 249.039062 58.832031 L 219.65625 29.445312 C 218.015625 27.808594 215.332031 27.808594 213.695312 29.445312 L 184.308594 58.832031 C 183.132812 60.046875 182.753906 61.851562 183.425781 63.40625 C 184.058594 65 185.609375 66.007812 187.289062 66.007812 Z M 187.289062 66.007812 " fill-opacity="1" fill-rule="nonzero"/><path fill="#0a1f44" d="M 279.640625 107.988281 L 279.640625 141.570312 C 279.640625 143.878906 281.53125 145.765625 283.839844 145.765625 C 286.148438 145.765625 288.039062 143.878906 288.039062 141.570312 L 288.039062 112.183594 L 300.628906 112.183594 C 302.308594 112.183594 303.863281 111.175781 304.492188 109.582031 C 305.164062 108.027344 304.785156 106.222656 303.570312 105.007812 L 274.183594 75.621094 C 272.546875 73.984375 269.902344 73.984375 268.265625 75.621094 L 238.878906 105.007812 C 237.664062 106.222656 237.328125 108.027344 237.957031 109.582031 C 238.585938 111.136719 240.140625 112.183594 241.820312 112.183594 L 254.414062 112.183594 L 254.414062 158.359375 C 254.414062 160.667969 256.300781 162.558594 258.609375 162.558594 C 260.917969 162.558594 262.808594 160.667969 262.808594 158.359375 L 262.808594 107.988281 C 262.808594 105.679688 260.917969 103.789062 258.609375 103.789062 L 251.9375 103.789062 L 271.203125 84.519531 L 290.472656 103.789062 L 283.796875 103.789062 C 281.488281 103.789062 279.601562 105.679688 279.601562 107.988281 Z M 279.640625 107.988281 " fill-opacity="1" fill-rule="nonzero"/></svg>