<svg version="1.1" xmlns="http://www.w3.org/2000/svg" xmlns:xlink="http://www.w3.org/1999/xlink" x="0" y="0" width="223.2" height="68.8" viewBox="0 0 223.2 68.8" xml:space="preserve"><g><path fill="#51489D" d="M32.9 8l-8-8H0v40.6h24.9l8-8V8zM12.1 8h8.7v24.5h-8.7V8zM44 0L32.7 40.6h12.1l1.7-6.8H56l1.7 6.8h12.1L58.5 0H44zm4.4 25.7l2.8-11.5L54 25.7h-5.6zM71.6 0h12.1v40.6H71.6zM99.5 8h15.6V0H95.4l-8 8v32.6h12.1V24.3h15.8v-8H99.5zM138.8 32.5h-8.1V0h-12.1v32.5l8 8.1h24.3V0h-12.1zM178.8 0l-12 12V0h-12.1v40.6h12.1V24.3h8.5v16.3h12.1V24.3l-8-8.1h-6l8.2-8.2h5.8V0h-8.6zM211.1 0v32.5H203V0h-12.1v32.5l8 8.1h24.3V0z"/><path fill="#51489D" d="M32.9 8l-8-8H0v40.6h24.9l8-8V8zM12.1 8h8.7v24.5h-8.7V8zM44 0L32.7 40.6h12.1l1.7-6.8H56l1.7 6.8h12.1L58.5 0H44zm4.4 25.7l2.8-11.5L54 25.7h-5.6zM71.6 0h12.1v40.6H71.6zM99.5 8h15.6V0H95.4l-8 8v32.6h12.1V24.3h15.8v-8H99.5zM138.8 32.5h-8.1V0h-12.1v32.5l8 8.1h24.3V0h-12.1zM178.8 0l-12 12V0h-12.1v40.6h12.1V24.3h8.5v16.3h12.1V24.3l-8-8.1h-6l8.2-8.2h5.8V0h-8.6zM211.1 0v32.5H203V0h-12.1v32.5l8 8.1h24.3V0z"/><g fill="#595757"><path d="M13.5 65.5L18 53h3.2l4.3 12.4h-2.7l-.9-2.6H17l-1 2.7h-2.5zm7.7-4.7l-1.7-5.3-1.8 5.3h3.5zM31.9 64.4c-.5.8-1.4 1.3-2.7 1.3-.9 0-2.5-.7-2.8-1.9-.1-.5-.2-1.1-.2-1.4v-5.6h2.6V62c0 .9.3 2 1.5 2 .8 0 1.5-.7 1.5-2v-5.2h2.6v7.1c0 .5.1 1 .1 1.5H32l-.1-1zM37.6 56.8v-1.7l2.6-.9v2.6h1.9v1.7h-1.9v4c0 1.1.2 1.4 1.1 1.4.3 0 .5 0 .8-.1v1.5c-.3.1-1.7.3-2 .3-2 0-2.4-1-2.4-2.9v-4.2H36v-1.7h1.6zM47.7 65.7c-2.8 0-4.5-1.9-4.5-4.6 0-2.7 1.7-4.6 4.5-4.6s4.5 1.9 4.5 4.6c0 2.8-1.7 4.6-4.5 4.6zm0-1.7c1.6 0 1.8-1.5 1.8-2.9s-.3-2.9-1.8-2.9c-1.6 0-1.8 1.5-1.8 2.9s.2 2.9 1.8 2.9zM55.7 57.8c.6-.8 1.4-1.3 2.7-1.3 1 0 2.4.7 2.7 1.6.8-1.1 1.6-1.6 2.9-1.6 1 0 2.4.7 2.7 1.6.3.7.3 1.4.3 2.1v5.2h-2.6v-5.2c0-.9-.3-2-1.5-2-.8 0-1.5.7-1.5 2v5.2h-2.6v-5.2c0-.9-.3-2-1.5-2-.8 0-1.5.7-1.5 2v5.2h-2.6v-8.6h2.6v1zM68.5 59.3c0-1.1.5-1.8 1.2-2.1.7-.4 1.6-.6 2.5-.6 1.7 0 3.7.6 3.7 3.2v4.7c0 .4.1.7.1.9h-2.3c-.1-.4-.1-.8-.1-1.2-.6 1-1.5 1.4-2.6 1.4-1.6 0-2.8-.9-2.8-2.6 0-.6.3-2.1 1.8-2.7 1-.4 2.3-.5 3.4-.5V59c0-.4-.3-1.1-1.2-1.1-.9 0-1.2.8-1.2 1.2h-2.5zm2.1 3.5c0 .7.5 1.2 1.3 1.2 1.4 0 1.5-1.6 1.5-2.6-1 0-2.8 0-2.8 1.4zM78.6 56.8v-1.7l2.6-.9v2.6h1.9v1.7h-1.9v4c0 1.1.2 1.4 1.1 1.4.3 0 .5 0 .8-.1v1.5c-.3.1-1.7.3-2 .3-2 0-2.4-1-2.4-2.9v-4.2H77v-1.7h1.6zM87.4 53v2.2h-2.7V53h2.7zm-.1 3.8v8.6h-2.6v-8.6h2.6zM93 65.7c-2.8 0-4.5-1.9-4.5-4.6 0-2.7 1.7-4.6 4.5-4.6s4.5 1.9 4.5 4.6c0 2.8-1.6 4.6-4.5 4.6zm0-1.7c1.6 0 1.8-1.5 1.8-2.9s-.3-2.9-1.8-2.9-1.8 1.5-1.8 2.9.3 2.9 1.8 2.9zM101.2 57.8c.6-.7 1.4-1.3 2.7-1.3.9 0 2.5.6 2.8 1.9.1.5.2 1.1.2 1.4v5.6h-2.6v-5.2c0-.9-.3-2-1.5-2-.8 0-1.5.7-1.5 2v5.2h-2.6v-8.6h2.6v1zM114.2 56.8v-1.7l2.6-.9v2.6h1.9v1.7h-1.9v4c0 1.1.2 1.4 1.1 1.4.3 0 .5 0 .8-.1v1.5c-.3.1-1.7.3-2 .3-2 0-2.4-1-2.4-2.9v-4.2h-1.7v-1.7h1.6zM120.1 65.5V53h2.6v4.8c.5-.8 1.3-1.3 2.6-1.3.9 0 2.5.6 2.8 1.9.1.5.2 1.1.2 1.4v5.6h-2.6v-5.2c0-.9-.3-2-1.5-2-.8 0-1.5.7-1.5 2v5.2h-2.6zM129.9 59.3c0-1.1.5-1.8 1.2-2.1.7-.4 1.6-.6 2.5-.6 1.7 0 3.7.6 3.7 3.2v4.7c0 .4.1.7.1.9h-2.3c-.1-.4-.1-.8-.1-1.2-.6 1-1.5 1.4-2.6 1.4-1.6 0-2.8-.9-2.8-2.6 0-.6.3-2.1 1.8-2.7 1-.4 2.3-.5 3.4-.5V59c0-.4-.3-1.1-1.2-1.1-.9 0-1.2.8-1.2 1.2h-2.5zm2 3.5c0 .7.5 1.2 1.3 1.2 1.4 0 1.5-1.6 1.5-2.6-.9 0-2.8 0-2.8 1.4zM140 56.8v-1.7l2.6-.9v2.6h1.9v1.7h-1.9v4c0 1.1.2 1.4 1.1 1.4.3 0 .5 0 .8-.1v1.5c-.3.1-1.7.3-2 .3-2 0-2.4-1-2.4-2.9v-4.2h-1.7v-1.7h1.6zM153.1 65.5h-2.7V53h2.7v12.5zM157.2 57.8c.6-.7 1.4-1.3 2.7-1.3.9 0 2.5.6 2.8 1.9.1.5.2 1.1.2 1.4v5.6h-2.6v-5.2c0-.9-.3-2-1.5-2-.8 0-1.5.7-1.5 2v5.2h-2.6v-8.6h2.6v1zM169.2 59.1c0-.6-.6-.8-1.2-.8-.7 0-1 .2-1 .8 0 1.4 4.9.6 4.9 3.8 0 1.9-2.3 2.8-3.9 2.8-2 0-3.8-.8-3.8-2.8h2.4c.1.7.7 1 1.4 1s1.2-.3 1.2-1-1.2-1-1.8-1.1c-1.6-.4-3.2-.8-3.2-2.8 0-1.8 2.2-2.6 3.7-2.6 1.8 0 3.4.7 3.5 2.6h-2.2zM175.4 57.8c.5-.7 1.4-1.3 2.3-1.3 2.7 0 4 2.3 4 4.6 0 2.2-1.2 4.6-3.7 4.6-1.1 0-2.1-.5-2.6-1.5v4.5h-2.6V58.5c0-.6-.1-1.2-.1-1.7h2.6l.1 1zm1.9 6.2c1.6 0 1.9-1.5 1.9-2.9 0-1.3-.2-2.9-1.9-2.9-1.4 0-1.9 1.7-1.9 2.9s.5 2.9 1.9 2.9zM185.5 53v2.2h-2.7V53h2.7zm-.1 3.8v8.6h-2.6v-8.6h2.6zM189.3 56.8l.1 1.6c.5-1.4 1.6-1.7 2.9-1.7V59h-1.1c-.4 0-1 .3-1.3.6-.3.5-.3 1-.3 1.5v4.3H187v-6.9c0-.4-.1-1.1-.1-1.7h2.4zM195.4 61.8c0 1.1.2 2.2 1.5 2.2.9 0 1.3-.3 1.6-1.1h2.3c-.2 2.1-1.9 2.8-3.9 2.8-3 0-4.1-1.7-4.1-4.6 0-2.6 1.5-4.6 4.1-4.6 1.6 0 3 .6 3.7 2.1.2.5.4 1 .4 1.5.1.5.1 1.1.1 1.6h-5.7zm3-1.7c0-.9-.3-1.8-1.5-1.8s-1.4.9-1.5 1.8h3zM207 59.1c0-.6-.6-.8-1.2-.8-.7 0-1 .2-1 .8 0 1.4 4.9.6 4.9 3.8 0 1.9-2.3 2.8-3.9 2.8-2 0-3.8-.8-3.8-2.8h2.4c.1.7.7 1 1.4 1s1.2-.3 1.2-1-1.2-1-1.8-1.1c-1.6-.4-3.2-.8-3.2-2.8 0-1.8 2.2-2.6 3.7-2.6 1.8 0 3.4.7 3.5 2.6H207z"/></g><path fill="none" d="M0 0h223.2v65.5H0z"/></g></svg>