
<svg xmlns="http://www.w3.org/2000/svg" viewBox="0 0 240 160" fill="none" stroke-linecap="round" stroke-linejoin="round" stroke-width="2" class="accent-sky">
<style>
.line{stroke:currentColor}
.accent{stroke:var(--accent,#0ea5e9)}
.fillAccent{fill:var(--accent,#0ea5e9)}
</style>
<!-- Database cylinder -->
<ellipse cx="50" cy="44" rx="26" ry="8" class="accent"/>
<path d="M24 44v34c0 4 12 8 26 8s26-4 26-8V44" class="accent"/>
<path d="M24 62c0 4 12 8 26 8s26-4 26-8" class="accent"/>
<!-- Bars -->
<rect x="105" y="70" width="14" height="40" rx="2" class="line"/>
<rect x="125" y="58" width="14" height="52" rx="2" class="line"/>
<rect x="145" y="82" width="14" height="28" rx="2" class="line"/>
<!-- Throughput line over bars -->
<path d="M102 96l12-16 20-18 20 12 20-8" class="accent"/>
<!-- Envelope -> class icon (arrow into box) -->
<rect x="190" y="60" width="28" height="22" rx="4" class="line"/>
<path d="M168 71h20" class="accent"/>
<path d="M186 66l6 5-6 5" class="accent"/>
</svg>
