
<svg xmlns="http://www.w3.org/2000/svg" viewBox="0 0 240 160" fill="none" stroke-linecap="round" stroke-linejoin="round" stroke-width="2" class="accent-sky">
<style>
.line{stroke:currentColor}
.accent{stroke:var(--accent,#0ea5e9)}
.fillAccent{fill:var(--accent,#0ea5e9)}
</style>
<!-- Gear -->
<circle cx="76" cy="76" r="16" class="line"/>
<path d="M76 56v6M76 90v6M56 76h6M90 76h6M62 62l4 4M90 62l-4 4M62 90l4-4M90 90l-4-4" class="line"/>
<circle cx="76" cy="76" r="5" class="accent"/>
<!-- Wrench -->
<path d="M100 60l12 12-18 18-12-12z" class="line"/>
<path d="M107 67l6-6" class="accent"/>
<!-- Progress bar / commissioning -->
<rect x="128" y="96" width="88" height="12" rx="6" class="line"/>
<rect x="128" y="96" width="52" height="12" rx="6" class="fillAccent"/>
<!-- FAT/SAT checks -->
<path d="M164 58l6 6 12-12" class="accent"/>
<path d="M164 74l6 6 12-12" class="accent"/>
</svg>
