
<svg xmlns="http://www.w3.org/2000/svg" viewBox="0 0 88.88 61.03" width="90" height="62" aria-label="Modula logo" role="img">
  <rect x="18.24" width="15.91" height="10.35" rx="2.14" fill="#faa21b"/>
  <g fill="#575a5d">
    <path d="M2.14,19H13.77a2.14,2.14,0,0,1,2.14,2.14v6.07a2.13,2.13,0,0,1-2.13,2.14H2.14A2.14,2.14,0,0,1,0,27.21V21.14A2.14,2.14,0,0,1,2.14,19Z"/>
    <path d="M20.38,19H32a2.13,2.13,0,0,1,2.13,2.14v6.07A2.13,2.13,0,0,1,32,29.35H20.38a2.14,2.14,0,0,1-2.14-2.14V21.14A2.14,2.14,0,0,1,20.38,19Z"/>
    <rect x="36.48" y="19" width="15.91" height="10.35" rx="2.14"/>
    <path d="M56.86,19H68.5a2.14,2.14,0,0,1,2.14,2.14v6.07a2.14,2.14,0,0,1-2.14,2.14H56.86a2.13,2.13,0,0,1-2.13-2.14V21.14A2.13,2.13,0,0,1,56.86,19Z"/>
    <path d="M75.11,19H86.74a2.14,2.14,0,0,1,2.14,2.14v6.07a2.14,2.14,0,0,1-2.14,2.14H75.1A2.13,2.13,0,0,1,73,27.21V21.14A2.14,2.14,0,0,1,75.11,19Z"/>
    <path d="M2.14,6H13.77a2.14,2.14,0,0,1,2.14,2.14v6.07a2.13,2.13,0,0,1-2.13,2.14H2.14A2.14,2.14,0,0,1,0,14.21V8.14A2.14,2.14,0,0,1,2.14,6Z"/>
    <path d="M38.62,6H50.26a2.13,2.13,0,0,1,2.13,2.14v6.07a2.13,2.13,0,0,1-2.13,2.14H38.62a2.14,2.14,0,0,1-2.14-2.14V8.14A2.14,2.14,0,0,1,38.62,6Z"/>
    <path d="M56.86,6H68.5a2.14,2.14,0,0,1,2.14,2.14v6.07a2.14,2.14,0,0,1-2.14,2.14H56.86a2.13,2.13,0,0,1-2.13-2.14V8.14A2.13,2.13,0,0,1,56.86,6Z"/>
    <path d="M75.11,6H86.74a2.14,2.14,0,0,1,2.14,2.14v6.07a2.14,2.14,0,0,1-2.14,2.14H75.1A2.13,2.13,0,0,1,73,14.22V8.14A2.14,2.14,0,0,1,75.11,6Z"/>
    <path d="M29.71,32H21.5a2.38,2.38,0,0,0-2.28,2.36V58.67A2.38,2.38,0,0,0,21.5,61h8.21A2.38,2.38,0,0,0,32,58.67V34.36A2.38,2.38,0,0,0,29.71,32M28.27,57.29a.58.58,0,0,1-.59.58H23.54a.58.58,0,0,1-.59-.58V36.12a.58.58,0,0,1,.59-.59h4.14a.58.58,0,0,1,.59.58Z"/>
    <path d="M14.75,32H2.28A2.24,2.24,0,0,0,0,34.17v26.35a.51.51,0,0,0,.51.51H3.22a.5.5,0,0,0,.5-.5V36.12a.58.58,0,0,1,.59-.59H6.07a.58.58,0,0,1,.59.59v24.4a.5.5,0,0,0,.5.51H9.88a.5.5,0,0,0,.5-.5V36.12a.58.58,0,0,1,.59-.59H12.7a.58.58,0,0,1,.59.59v24.4a.5.5,0,0,0,.49.51h2.74a.5.5,0,0,0,.5-.5V34.4a2.18,2.18,0,0,0-2-2.39Z"/>
    <path d="M86.91,32H78.75a2.22,2.22,0,0,0-2.28,2.17V60.52a.5.5,0,0,0,.5.5h2.72a.5.5,0,0,0,.5-.49V50.71a.43.43,0,0,1,.42-.43h4.06a.42.42,0,0,1,.42.43v9.82a.5.5,0,0,0,.5.5h2.72a.5.5,0,0,0,.5-.5V34.4a2.18,2.18,0,0,0-2-2.39Zm-1.82,14.17a.42.42,0,0,1-.42.43H80.61a.42.42,0,0,1-.42-.43V36.12a.58.58,0,0,1,.59-.59H84.5a.58.58,0,0,1,.59.59Z"/>
    <path d="M59.88,32H57.17a.5.5,0,0,0-.5.5V57.28a.59.59,0,0,1-.59.59H52.35a.59.59,0,0,1-.59-.59V32.51a.5.5,0,0,0-.5-.5H48.55a.5.5,0,0,0-.5.5V58.63A2.19,2.19,0,0,0,50,61h8.11a2.21,2.21,0,0,0,2.28-2.16V32.51a.5.5,0,0,0-.5-.5Z"/>
    <path d="M74.38,57.88h-7.6a.58.58,0,0,1-.59-.59V32.51a.5.5,0,0,0-.5-.5H63a.5.5,0,0,0-.5.5V58.19A2.84,2.84,0,0,0,65.31,61h9.08a.5.5,0,0,0,.5-.5V58.39a.51.51,0,0,0-.5-.51Z"/>
    <path d="M40.64,32H34.72a.51.51,0,0,0-.51.5v28a.51.51,0,0,0,.51.51h6.07C43.45,61,46,59.55,46,56.36V36.86c0-3.34-2.66-4.86-5.4-4.86Zm1.66,23.44A2.35,2.35,0,0,1,40,57.88h-1.47a.58.58,0,0,1-.59-.58V36.12a.58.58,0,0,1,.59-.59h1.34a2.27,2.27,0,0,1,2.43,2.1Z"/>
  </g>
</svg>
<svg xmlns="http://www.w3.org/2000/svg" viewBox="0 0 120 40" fill="none">
<rect x="10" y="10" width="100" height="20" rx="4" fill="#575a5d"/>
<text x="60" y="25" text-anchor="middle" fill="white" font-family="Arial, sans-serif" font-size="12">MODULA</text>
</svg>
