<?xml version="1.0" encoding="UTF-8"?><svg xmlns="http://www.w3.org/2000/svg" viewBox="0 0 225.6 74.6"><defs><style>.d{fill:#f37021;}.e{fill:#2b93d1;}</style></defs><g id="a"/><g id="b"><g id="c"><path class="e" d="M26.2,45.1l5.8-8.1c-.8-.6-6.5-4.9-15.4-4.9-7.7,0-14.2,4.9-14.2,12.4s5.9,10.6,12,12.9c4.5,1.7,5.8,2.5,5.8,4.3,0,1.4-1.2,2.3-2.9,2.3-4.9,0-10.6-5.2-10.6-5.2L0,67.5s6.6,6.7,18.2,6.7c9.5,0,15.2-5.6,15.2-13,0-8.3-5.4-11.5-12.7-13.9-3.3-1-5.7-2-5.7-3.4,0-1.3,1.1-1.9,2.4-1.9,3.8,0,7.6,2.3,8.8,3.1m34,27.4v-11.7c-5.2,.3-8.1,.1-8.1-3.6v-11.3h8.1v-12.4h-8.1V16.6l-20.8,29.3h7.8v11.6c.1,12.1,5.2,17,21.1,15m33.9-19.5c0,4.8-3.4,8.1-7.9,8.1s-7.8-3.3-7.8-8.1,3.4-8.1,7.8-8.1,7.9,3.3,7.9,8.1m13,0c0-11.6-9.2-20.6-20.8-20.6s-20.8,9-20.8,20.6,9.4,20.6,20.8,20.6c11.6,0,20.8-8.9,20.8-20.6m58.4-19.5h-13.2l-7.2,16.1-9.3-17.5-9.3,17.5-7.2-16.1h-13.2l20.2,41.1,9.5-17.8,9.5,17.8,20.2-41.1Z"/><path class="d" d="M179.5,46.1h13v-13h-13v13Zm16.5,0h13v-13h-13v13Zm16.6,0h13v-13h-13v13Zm-33.1-16.5h13v-13h-13v13Zm16.5,0h13v-13h-13v13Zm16.6,0h13v-13h-13v13Zm-33.1-16.6h13V0h-13V13Zm16.5,0h13V0h-13V13Zm16.6,0h13V0h-13V13Z"/></g></g></svg>