<svg viewBox="0 0 1213.6986 443.3496" version="1.1" xmlns="http://www.w3.org/2000/svg" id="Layer_1">
  
  <defs>
    <style>
      .st0 {
        fill: #efc150;
      }
    </style>
  </defs>
  <g>
    <path d="M47.4022,0h321.6309v367.9929c0,16.3726-13.2925,29.6651-29.6651,29.6651H77.0674c-16.3726,0-29.6651-13.2925-29.6651-29.6651V0h0Z" class="st0"></path>
    <g>
      <polygon points="276.3859 166.1715 281.9761 155.7307 256.1149 149.4575 276.3859 166.1715"></polygon>
      <polygon points="302.9518 171.0445 323.9203 178.7069 319.0275 203.0716 322.5253 217.6916 316.2363 214.207 274.9865 215.5975 306.4496 205.8513 314.1335 187.7584 302.9518 171.0445"></polygon>
      <polygon points="170.9842 282.8252 106.5983 304.7757 193.756 227.0413 206.5686 277.2155 282.2011 363.0604 170.9842 282.8252"></polygon>
      <polygon points="299.138 243.5012 314.1403 246.2369 316.2327 231.6183 305.051 239.9637 253.3156 212.126 230.9418 227.4392 219.7601 215.5989 244.2263 171.0459 210.6708 156.4273 235.9966 116.8229 296.6592 146.6811 255.4094 80.5416 252.6181 99.3394 214.1686 63.8276 202.9765 89.5932 154.0427 79.8367 179.2077 101.4232 101.6112 141.1128 154.9658 131.4208 89.0228 189.8436 129.5765 178.698 84.8276 242.7537 117.6856 217.693 96.7171 289.4008 197.3863 198.8965 227.658 270.6559 290.3702 347.1832 286.8724 304.714 309.2462 317.9434 286.175 277.5592 284.78 240.6699 299.138 243.3953 299.138 243.5012"></polygon>
    </g>
  </g>
  <g>
    <polygon points="421.1363 139.0394 421.1363 205.7281 452.656 205.7281 452.656 209.8845 416.8832 209.8845 416.8832 139.0394 421.1363 139.0394"></polygon>
    <rect height="70.845" width="4.2587" y="139.044" x="473.1198"></rect>
    <polygon points="599.0717 139.0394 646.4023 203.3995 646.4023 139.0394 650.5586 139.0394 650.5586 209.8845 645.5938 209.8845 598.3658 145.5301 598.3658 209.8845 594.1069 209.8845 594.1069 139.0394 599.0717 139.0394"></polygon>
    <polygon points="728.1778 138.9398 728.1778 149.6836 689.4616 149.6836 689.4616 168.9449 724.1241 168.9449 724.1241 179.5862 689.4616 179.5862 689.4616 199.1379 729.3961 199.1379 729.3961 209.8873 677.5049 209.8873 677.5049 138.9398 728.1778 138.9398"></polygon>
    <polygon points="761.2052 138.9398 799.2156 189.92 799.2156 138.9398 810.9669 138.9398 810.9669 209.8873 799.2156 209.8873 761.4044 159.004 761.4044 209.8873 749.448 209.8873 749.448 138.9398 761.2052 138.9398"></polygon>
    <polygon points="885.8465 138.9398 885.8465 149.6836 847.1244 149.6836 847.1244 168.9449 881.7928 168.9449 881.7928 179.5862 847.1244 179.5862 847.1244 199.1379 887.0649 199.1379 887.0649 209.8873 835.1736 209.8873 835.1736 138.9398 885.8465 138.9398"></polygon>
    <path d="M952.1253,209.889l-12.9815-21.4875c-1.0074.1025-2.1292.1025-3.2395.1025h-16.8246v21.385h-11.9623v-70.9475h28.7868c18.1455,0,28.5874,8.8137,28.5874,24.2204,0,11.353-5.2779,19.3638-14.7065,23.0077l15.9134,23.7194h-13.5733ZM935.9043,177.7546c10.9486,0,17.2287-4.6573,17.2287-14.2909,0-9.3146-6.2802-13.7841-17.2287-13.7841h-16.8246v28.075h16.8246Z"></path>
    <path d="M1034.4019,175.0194h10.4419v26.1562c-7.2024,5.4715-17.8379,9.2179-27.5681,9.2179-20.9808,0-37.2987-15.7085-37.2987-35.9776s16.5229-35.784,38.0048-35.784c10.1344,0,20.2746,3.8546,27.2606,9.9352l-6.7868,8.8194c-5.4715-5.0673-13.0722-8.1077-20.4738-8.1077-14.4904,0-25.8431,11.0455-25.8431,25.1371,0,14.1884,11.4552,25.2339,25.9512,25.2339,5.2665,0,11.2447-1.8219,16.312-4.8623v-19.7681Z"></path>
    <polygon points="1096.3135 186.2727 1096.3135 209.8839 1084.4537 209.8839 1084.4537 186.6713 1058.0015 138.9421 1070.0603 138.9421 1090.3294 173.502 1110.1943 138.9421 1122.3557 138.9421 1096.3135 186.2727"></polygon>
    <rect height="36.6438" width="3.661" y="135.9467" x="537.2805"></rect>
    <path d="M504.1606,173.1342c0,18.9539,14.7805,34.2696,33.0911,34.2696,18.4186,0,33.3017-15.3157,33.3017-34.2696,0-8.8876-3.4276-17.2344-9.104-23.56l3.1029-2.7785c6.428,6.9575,10.3908,16.4885,10.3908,26.4466,0,21.311-16.8131,38.6593-37.589,38.6593s-37.4751-17.3483-37.4751-38.6593c0-10.0662,3.8546-19.3809,10.0663-26.3384l3.4219,2.6703c-5.7791,6.2117-9.2065,14.6723-9.2065,23.56"></path>
    <polygon points="1153.6272 139.3731 1153.6272 141.2406 1147.8367 141.2406 1147.8367 157.0687 1145.8156 157.0687 1145.8156 141.2406 1140.0539 141.2406 1140.0539 139.3731 1153.6272 139.3731"></polygon>
    <polygon points="1159.065 139.3731 1165.5387 152.2177 1171.9895 139.3731 1174.4662 139.3731 1174.4662 157.0687 1172.5928 157.0687 1172.5643 142.3508 1166.1194 155.1955 1164.9066 155.1955 1158.4784 142.3508 1158.4784 157.0687 1156.5654 157.0687 1156.5654 139.3731 1159.065 139.3731"></polygon>
  </g>
  <g>
    <path d="M443.8667,267.1513v9.3291h-4.6846v-9.1689l-10.4502-18.8584h4.7646l8.0078,13.6533,7.8477-13.6533h4.8047l-10.29,18.6982Z"></path>
    <path d="M476.6577,265.7899c0,6.4463-4.5244,10.8506-11.0908,10.8506-6.6064,0-11.1309-4.4043-11.1309-10.8506,0-6.4062,4.5244-10.7705,11.1309-10.7705,6.5664,0,11.0908,4.3643,11.0908,10.7705ZM459.0405,265.87c0,4.124,2.6826,6.9268,6.5264,6.9268,3.8037,0,6.4863-2.8027,6.4863-6.9268,0-4.084-2.6826-6.9268-6.4863-6.9268-3.8438,0-6.5264,2.8428-6.5264,6.9268Z"></path>
    <path d="M501.8007,255.1796v21.3008h-4.6045v-4.1641c-1.4414,2.9629-4.124,4.2842-7.6074,4.3242-4.8848,0-7.8076-3.123-7.8076-8.208v-13.2529h4.6045v11.9717c0,3.2031,1.8818,5.165,4.9648,5.165,3.6836-.0801,5.8457-2.9229,5.8457-6.6465v-10.4902h4.6045Z"></path>
    <path d="M521.5781,255.0194v4.4043c-4.2842-.2402-7.0068,2.2822-7.3672,5.9258v11.1309h-4.6045v-21.3008h4.6045v4.2441c1.4414-2.8828,4.0039-4.4043,7.3672-4.4043Z"></path>
    <path d="M544.3979,248.453v23.7432h12.1318v4.2842h-16.8564v-28.0273h4.7246Z"></path>
    <path d="M566.7382,249.0936c0,1.5615-1.1611,2.7227-2.6826,2.7227s-2.6826-1.1611-2.6826-2.7227c0-1.6016,1.1611-2.7627,2.6826-2.7627s2.6826,1.1611,2.6826,2.7627ZM566.3378,255.1796v21.3008h-4.5645v-21.3008h4.5645Z"></path>
    <path d="M579.5903,253.4579v2.5225h5.5654v3.4434h-5.5654v17.0566h-4.5645v-17.0566h-2.8027v-3.4434h2.8027v-2.082c0-4.9648,3.6436-7.3271,7.3271-7.3271,1.7217,0,3.4434.4805,4.8047,1.4814l-1.7617,3.5234c-.8809-.6406-1.9619-1.001-2.9229-1.001-1.5615,0-2.8828.8809-2.8828,2.8828Z"></path>
    <path d="M607.2153,267.5917h-16.0952c.7207,3.2832,3.2432,5.3252,6.6064,5.3252,2.3223,0,4.4443-.8809,6.0059-2.4824l2.4424,2.6025c-2.082,2.2822-5.125,3.6035-8.8086,3.6035-6.5664,0-10.8906-4.3643-10.8906-10.7705,0-6.4463,4.4443-10.8105,10.7705-10.8506,7.4873,0,10.5298,4.8848,9.9692,12.5723ZM603.2119,264.2284c-.1602-3.4434-2.4424-5.5254-5.9258-5.5254-3.3633,0-5.7656,2.1221-6.2461,5.5254h12.1719Z"></path>
    <path d="M616.5034,274.1581c0,1.5615-1.0811,2.6826-2.5225,2.6826s-2.5225-1.1211-2.5225-2.6826c0-1.5215,1.0811-2.6025,2.5225-2.6025s2.5225,1.0811,2.5225,2.6025Z"></path>
    <path d="M647.5317,267.1513v9.3291h-4.6846v-9.1689l-10.4502-18.8584h4.7646l8.0078,13.6533,7.8477-13.6533h4.8047l-10.29,18.6982Z"></path>
    <path d="M680.3227,265.7899c0,6.4463-4.5244,10.8506-11.0908,10.8506-6.6064,0-11.1309-4.4043-11.1309-10.8506,0-6.4062,4.5244-10.7705,11.1309-10.7705,6.5664,0,11.0908,4.3643,11.0908,10.7705ZM662.7055,265.87c0,4.124,2.6826,6.9268,6.5264,6.9268,3.8037,0,6.4863-2.8027,6.4863-6.9268,0-4.084-2.6826-6.9268-6.4863-6.9268-3.8438,0-6.5264,2.8428-6.5264,6.9268Z"></path>
    <path d="M705.4653,255.1796v21.3008h-4.6045v-4.1641c-1.4414,2.9629-4.124,4.2842-7.6074,4.3242-4.8848,0-7.8076-3.123-7.8076-8.208v-13.2529h4.6045v11.9717c0,3.2031,1.8818,5.165,4.9648,5.165,3.6836-.0801,5.8457-2.9229,5.8457-6.6465v-10.4902h4.6045Z"></path>
    <path d="M725.2426,255.0194v4.4043c-4.2842-.2402-7.0068,2.2822-7.3672,5.9258v11.1309h-4.6045v-21.3008h4.6045v4.2441c1.4414-2.8828,4.0039-4.4043,7.3672-4.4043Z"></path>
    <path d="M765.6001,258.0223c0,6.3262-4.0439,10.0098-11.0908,10.0098h-6.4463v8.4482h-4.7246v-28.0273h11.1709c7.0469,0,11.0908,3.4834,11.0908,9.5693ZM761.0756,258.1425c0-3.6836-2.4424-5.4453-6.7666-5.4453h-6.2461v11.0908h6.2461c4.3242,0,6.7666-1.8418,6.7666-5.6455Z"></path>
    <path d="M791.2231,265.7899c0,6.4463-4.5244,10.8506-11.0908,10.8506-6.6064,0-11.1309-4.4043-11.1309-10.8506,0-6.4062,4.5244-10.7705,11.1309-10.7705,6.5664,0,11.0908,4.3643,11.0908,10.7705ZM773.6059,265.87c0,4.124,2.6826,6.9268,6.5264,6.9268,3.8037,0,6.4863-2.8027,6.4863-6.9268,0-4.084-2.6826-6.9268-6.4863-6.9268-3.8438,0-6.5264,2.8428-6.5264,6.9268Z"></path>
    <path d="M797.5883,255.1796l5.5254,16.7363,5.3652-16.7363h4.7646l5.4053,16.7363,5.4453-16.7363h4.6846l-7.7676,21.3008h-4.7646l-5.4053-15.7754-5.4053,15.7754h-4.7246l-7.8477-21.3008h4.7246Z"></path>
    <path d="M850.9184,267.5917h-16.0957c.7207,3.2832,3.2432,5.3252,6.6064,5.3252,2.3223,0,4.4443-.8809,6.0059-2.4824l2.4424,2.6025c-2.082,2.2822-5.125,3.6035-8.8086,3.6035-6.5664,0-10.8906-4.3643-10.8906-10.7705,0-6.4463,4.4443-10.8105,10.7705-10.8506,7.4873,0,10.5303,4.8848,9.9697,12.5723ZM846.9145,264.2284c-.1602-3.4434-2.4424-5.5254-5.9258-5.5254-3.3633,0-5.7656,2.1221-6.2461,5.5254h12.1719Z"></path>
    <path d="M868.6938,255.0194v4.4043c-4.2842-.2402-7.0068,2.2822-7.3672,5.9258v11.1309h-4.6045v-21.3008h4.6045v4.2441c1.4414-2.8828,4.0039-4.4043,7.3672-4.4043Z"></path>
    <path d="M876.9809,274.1581c0,1.5615-1.0811,2.6826-2.5225,2.6826s-2.5225-1.1211-2.5225-2.6826c0-1.5215,1.0811-2.6025,2.5225-2.6025s2.5225,1.0811,2.5225,2.6025Z"></path>
    <path d="M908.0083,267.1513v9.3291h-4.6846v-9.1689l-10.4502-18.8584h4.7646l8.0078,13.6533,7.8477-13.6533h4.8047l-10.29,18.6982Z"></path>
    <path d="M940.7993,265.7899c0,6.4463-4.5244,10.8506-11.0908,10.8506-6.6064,0-11.1309-4.4043-11.1309-10.8506,0-6.4062,4.5244-10.7705,11.1309-10.7705,6.5664,0,11.0908,4.3643,11.0908,10.7705ZM923.1821,265.87c0,4.124,2.6826,6.9268,6.5264,6.9268,3.8037,0,6.4863-2.8027,6.4863-6.9268,0-4.084-2.6826-6.9268-6.4863-6.9268-3.8438,0-6.5264,2.8428-6.5264,6.9268Z"></path>
    <path d="M965.9428,255.1796v21.3008h-4.6045v-4.1641c-1.4414,2.9629-4.124,4.2842-7.6074,4.3242-4.8848,0-7.8076-3.123-7.8076-8.208v-13.2529h4.6045v11.9717c0,3.2031,1.8818,5.165,4.9648,5.165,3.6836-.0801,5.8457-2.9229,5.8457-6.6465v-10.4902h4.6045Z"></path>
    <path d="M985.7202,255.0194v4.4043c-4.2842-.2402-7.0068,2.2822-7.3672,5.9258v11.1309h-4.6045v-21.3008h4.6045v4.2441c1.4414-2.8828,4.0039-4.4043,7.3672-4.4043Z"></path>
    <path d="M1005.3374,248.453l6.8066,22.7822,6.7666-22.7822h4.6445l6.8066,22.7822,6.7666-22.7822h4.8848l-9.3691,28.0273h-4.8447l-6.6465-21.8613-6.7266,21.8613h-4.8848l-9.2891-28.0273h5.085Z"></path>
    <path d="M1056.9047,276.4804v-2.6025c-1.5215,1.8818-3.9639,2.8027-7.0469,2.8027-4.6045,0-7.4873-2.8428-7.4873-6.6064,0-3.8838,2.9229-6.3662,8.0479-6.4062h6.4463v-.6406c0-2.6826-1.7217-4.2842-5.085-4.2842-2.042,0-4.1641.7207-6.2861,2.1621l-1.8818-3.2031c2.9629-1.7617,5.125-2.6826,9.1689-2.6826,5.4854,0,8.5684,2.8027,8.6084,7.4873l.04,13.9736h-4.5244ZM1056.8647,268.9931v-1.9619h-5.7656c-3.0029,0-4.4043.8008-4.4043,2.8428,0,1.9219,1.5615,3.1631,4.124,3.1631,3.2832,0,5.8057-1.7217,6.0459-4.0439Z"></path>
    <path d="M1069.3959,284.4481c-1.9219,0-3.4434-.5605-4.9248-1.8018l1.9619-3.5635c1.001.7207,1.8018,1.041,2.7627,1.041,1.4014,0,2.5225-.7607,3.2432-2.3623l.7207-1.6016-8.8086-20.9805h4.7646l6.3662,16.1357,5.9258-16.1357h4.6045l-9.6895,24.2236c-1.3213,3.3633-3.7236,5.0449-6.9268,5.0449Z"></path>
    <path d="M1093.2973,274.1581c0,1.5615-1.0811,2.6826-2.5225,2.6826s-2.5225-1.1211-2.5225-2.6826c0-1.5215,1.0811-2.6025,2.5225-2.6025s2.5225,1.0811,2.5225,2.6025Z"></path>
  </g>
</svg>