
<svg xmlns="http://www.w3.org/2000/svg" viewBox="0 0 200 60" fill="none">
  <g fill="#0066cc">
    <path d="M20 15h15c8.284 0 15 6.716 15 15s-6.716 15-15 15H20V15zm5 5v20h10c5.523 0 10-4.477 10-10s-4.477-10-10-10H25z"/>
    <path d="M60 15h5l12 30h-6l-2.5-6.25h-12L54 45h-6l12-30zm7.5 18.75L62 45h6l-5.5-11.25z"/>
    <path d="M85 15h5v30h-5V15z"/>
    <path d="M100 15h20v5h-15v7.5h13v5h-13V40h15v5h-20V15z"/>
    <path d="M130 15h15c5.523 0 10 4.477 10 10v5c0 5.523-4.477 10-10 10h-10v5h-5V15zm5 5v15h10c2.761 0 5-2.239 5-5v-5c0-2.761-2.239-5-5-5h-10z"/>
    <path d="M165 15h5v15c0 5.523 4.477 10 10 10s10-4.477 10-10V15h5v15c0 8.284-6.716 15-15 15s-15-6.716-15-15V15z"/>
  </g>
</svg>
