<svg xmlns="http://www.w3.org/2000/svg" xmlns:xlink="http://www.w3.org/1999/xlink" width="500" zoomAndPan="magnify" viewBox="0 0 375 374.999991" height="500" preserveAspectRatio="xMidYMid meet" version="1.0"><defs><clipPath id="043bc1364c"><path d="M 0 0 L 374.808594 0 L 374.808594 375 L 0 375 Z M 0 0 " clip-rule="nonzero"/></clipPath></defs><rect x="-37.5" width="450" fill="#ffffff" y="-37.499999" height="449.999989" fill-opacity="1"/><rect x="-37.5" width="450" fill="#ffffff" y="-37.499999" height="449.999989" fill-opacity="1"/><g clip-path="url(#043bc1364c)"><path fill="#00d8ff" d="M 192.957031 168.542969 C 154.550781 168.542969 115.667969 178.148438 115.667969 196.496094 L 115.667969 288.570312 C 115.667969 289.269531 115.808594 289.960938 116.082031 290.609375 C 124.289062 309.910156 162.625 316.761719 192.957031 316.761719 C 223.292969 316.761719 261.628906 309.917969 269.832031 290.609375 C 270.109375 289.960938 270.25 289.269531 270.25 288.570312 L 270.25 196.496094 C 270.25 178.140625 231.367188 168.542969 192.957031 168.542969 Z M 259.832031 287.402344 C 253.933594 298.429688 226.203125 306.347656 192.957031 306.347656 C 159.714844 306.347656 131.984375 298.429688 126.082031 287.402344 L 126.082031 255.996094 C 141.523438 266.667969 169.609375 270.730469 192.957031 270.730469 C 216.308594 270.730469 244.394531 266.667969 259.832031 255.996094 Z M 259.832031 241.339844 C 253.957031 252.382812 226.226562 260.304688 192.957031 260.304688 C 159.691406 260.304688 131.960938 252.382812 126.082031 241.339844 L 126.082031 211.25 C 140.207031 219.960938 166.695312 224.449219 192.957031 224.449219 C 219.222656 224.449219 245.710938 219.957031 259.832031 211.25 Z M 192.957031 214.03125 C 149.683594 214.03125 126.082031 202.449219 126.082031 196.496094 C 126.082031 190.542969 149.691406 178.957031 192.957031 178.957031 C 236.234375 178.957031 259.832031 190.542969 259.832031 196.496094 C 259.832031 202.449219 236.234375 214.03125 192.957031 214.03125 Z M 225.988281 285.550781 C 225.355469 282.746094 227.125 279.957031 229.929688 279.332031 L 236.566406 277.84375 C 239.371094 277.210938 242.164062 278.980469 242.789062 281.785156 C 243.421875 284.589844 241.648438 287.382812 238.84375 288.007812 L 232.207031 289.492188 C 231.820312 289.582031 231.441406 289.621094 231.0625 289.621094 C 228.679688 289.621094 226.53125 287.976562 225.988281 285.550781 Z M 225.988281 239.753906 C 225.355469 236.949219 227.125 234.160156 229.929688 233.535156 L 236.566406 232.046875 C 239.378906 231.421875 242.164062 233.183594 242.789062 235.988281 C 243.421875 238.792969 241.648438 241.585938 238.84375 242.210938 L 232.207031 243.699219 C 231.820312 243.789062 231.441406 243.824219 231.0625 243.824219 C 228.679688 243.824219 226.53125 242.179688 225.988281 239.753906 Z M 148.957031 44.003906 C 148.957031 19.738281 168.695312 0 192.957031 0 C 217.222656 0 236.960938 19.738281 236.960938 44.003906 C 236.960938 61.941406 226.234375 77.929688 209.632812 84.730469 C 206.96875 85.820312 203.925781 84.546875 202.839844 81.890625 C 201.746094 79.226562 203.027344 76.183594 205.683594 75.097656 C 218.351562 69.902344 226.546875 57.699219 226.546875 44.003906 C 226.546875 25.484375 211.476562 10.417969 192.957031 10.417969 C 174.441406 10.417969 159.371094 25.484375 159.371094 44.003906 C 159.371094 57.699219 167.566406 69.902344 180.234375 75.097656 C 182.898438 76.191406 184.171875 79.226562 183.078125 81.890625 C 182.253906 83.90625 180.308594 85.125 178.257812 85.125 C 177.601562 85.125 176.933594 85 176.285156 84.738281 C 159.683594 77.929688 148.957031 61.941406 148.957031 44.003906 Z M 374.789062 70.386719 L 374.789062 129.398438 C 374.789062 136.511719 369 142.304688 361.878906 142.304688 L 302.871094 142.304688 C 295.757812 142.304688 289.960938 136.519531 289.960938 129.398438 L 289.960938 113.488281 C 289.960938 110.609375 292.289062 108.28125 295.167969 108.28125 C 298.046875 108.28125 300.378906 110.609375 300.378906 113.488281 L 300.378906 129.398438 C 300.378906 130.742188 301.515625 131.890625 302.871094 131.890625 L 361.878906 131.890625 C 363.226562 131.890625 364.371094 130.75 364.371094 129.398438 L 364.371094 70.386719 C 364.371094 69.039062 363.234375 67.894531 361.878906 67.894531 L 302.871094 67.894531 C 301.523438 67.894531 300.378906 69.03125 300.378906 70.386719 L 300.378906 86.488281 C 300.378906 89.367188 298.046875 91.695312 295.167969 91.695312 C 292.289062 91.695312 289.960938 89.367188 289.960938 86.488281 L 289.960938 70.386719 C 289.960938 63.273438 295.75 57.476562 302.871094 57.476562 L 361.878906 57.476562 C 369 57.476562 374.789062 63.265625 374.789062 70.386719 Z M 97.074219 144.992188 L 10.011719 144.992188 C 6.226562 144.992188 2.890625 143.074219 1.105469 139.851562 C -0.714844 136.554688 -0.640625 132.417969 1.308594 129.300781 L 44.832031 59.613281 C 46.722656 56.59375 49.976562 54.792969 53.539062 54.792969 C 57.101562 54.792969 60.355469 56.59375 62.246094 59.613281 L 77.265625 83.660156 C 78.792969 86.101562 78.046875 89.316406 75.609375 90.839844 C 73.167969 92.367188 69.953125 91.621094 68.425781 89.179688 L 53.539062 65.335938 L 10.296875 134.574219 L 96.789062 134.574219 L 85.265625 116.125 C 83.738281 113.683594 84.484375 110.46875 86.925781 108.945312 C 89.363281 107.417969 92.578125 108.164062 94.105469 110.601562 L 105.777344 129.292969 C 107.726562 132.410156 107.808594 136.554688 105.980469 139.84375 C 104.1875 143.074219 100.859375 144.992188 97.074219 144.992188 Z M 79.394531 160.507812 L 79.394531 323.289062 L 306.515625 323.289062 L 306.515625 160.507812 C 306.515625 157.625 308.84375 155.296875 311.722656 155.296875 C 314.601562 155.296875 316.933594 157.625 316.933594 160.507812 L 316.933594 328.496094 C 316.933594 331.375 314.601562 333.707031 311.722656 333.707031 L 74.1875 333.707031 C 71.308594 333.707031 68.976562 331.375 68.976562 328.496094 L 68.976562 160.507812 C 68.976562 157.625 71.308594 155.296875 74.1875 155.296875 C 77.066406 155.296875 79.394531 157.625 79.394531 160.507812 Z M 358.234375 160.507812 L 358.234375 337.402344 C 358.234375 358.132812 341.367188 375 320.636719 375 L 65.28125 375 C 44.550781 375 27.683594 358.132812 27.683594 337.402344 L 27.683594 160.507812 C 27.683594 157.625 30.011719 155.296875 32.890625 155.296875 C 35.769531 155.296875 38.101562 157.625 38.101562 160.507812 L 38.101562 337.402344 C 38.101562 352.386719 50.296875 364.582031 65.28125 364.582031 L 320.628906 364.582031 C 335.613281 364.582031 347.808594 352.386719 347.808594 337.402344 L 347.808594 160.507812 C 347.808594 157.625 350.140625 155.296875 353.019531 155.296875 C 355.898438 155.296875 358.234375 157.625 358.234375 160.507812 Z M 183.710938 117.945312 L 187.75 122.773438 L 187.75 55.871094 C 187.75 52.992188 190.078125 50.664062 192.957031 50.664062 C 195.839844 50.664062 198.167969 52.992188 198.167969 55.871094 L 198.167969 122.773438 L 202.207031 117.945312 C 204.050781 115.742188 207.339844 115.445312 209.542969 117.300781 C 211.746094 119.144531 212.042969 122.433594 210.191406 124.636719 L 196.945312 140.453125 C 195.957031 141.636719 194.492188 142.320312 192.953125 142.320312 C 191.410156 142.320312 189.945312 141.636719 188.957031 140.453125 L 175.710938 124.636719 C 173.867188 122.433594 174.15625 119.144531 176.359375 117.300781 C 178.578125 115.453125 181.859375 115.742188 183.710938 117.945312 Z M 240.324219 147.164062 L 240.324219 110.304688 C 240.324219 101.6875 247.332031 94.679688 255.949219 94.679688 L 312.46875 94.679688 C 315.347656 94.679688 317.675781 97.007812 317.675781 99.886719 C 317.675781 102.769531 315.347656 105.097656 312.46875 105.097656 L 255.949219 105.097656 C 253.078125 105.097656 250.742188 107.433594 250.742188 110.304688 L 250.742188 147.164062 L 254.78125 142.335938 C 256.628906 140.132812 259.914062 139.835938 262.117188 141.6875 C 264.320312 143.535156 264.617188 146.824219 262.765625 149.023438 L 249.519531 164.84375 C 248.53125 166.027344 247.066406 166.710938 245.527344 166.710938 C 243.984375 166.710938 242.519531 166.027344 241.53125 164.84375 L 228.285156 149.023438 C 226.441406 146.824219 226.730469 143.535156 228.933594 141.6875 C 231.136719 139.84375 234.425781 140.132812 236.269531 142.335938 Z M 59.773438 94.679688 L 129.96875 94.679688 C 138.582031 94.679688 145.59375 101.6875 145.59375 110.304688 L 145.59375 147.164062 L 149.632812 142.335938 C 151.476562 140.132812 154.765625 139.84375 156.96875 141.6875 C 159.171875 143.535156 159.460938 146.824219 157.617188 149.023438 L 144.371094 164.84375 C 143.382812 166.027344 141.917969 166.710938 140.378906 166.710938 C 138.835938 166.710938 137.371094 166.027344 136.382812 164.84375 L 123.136719 149.023438 C 121.292969 146.824219 121.582031 143.535156 123.785156 141.6875 C 125.988281 139.84375 129.277344 140.132812 131.121094 142.335938 L 135.160156 147.164062 L 135.160156 110.304688 C 135.160156 107.433594 132.824219 105.097656 129.953125 105.097656 L 59.773438 105.097656 C 56.894531 105.097656 54.566406 102.769531 54.566406 99.886719 C 54.566406 97.007812 56.894531 94.679688 59.773438 94.679688 Z M 59.773438 94.679688 " fill-opacity="1" fill-rule="nonzero"/></g></svg>