<svg xmlns="http://www.w3.org/2000/svg" xmlns:xlink="http://www.w3.org/1999/xlink" width="500" zoomAndPan="magnify" viewBox="0 0 375 374.999991" height="500" preserveAspectRatio="xMidYMid meet" version="1.0"><defs><clipPath id="cc30654e28"><path d="M 0 0.121094 L 203 0.121094 L 203 173.988281 L 0 173.988281 Z M 0 0.121094 " clip-rule="nonzero"/></clipPath><clipPath id="4d79f08d6b"><path d="M 116.144531 86.835938 L 374.367188 86.835938 L 374.367188 345.058594 L 116.144531 345.058594 Z M 116.144531 86.835938 " clip-rule="nonzero"/></clipPath><clipPath id="f76a0fb5d0"><rect x="0" width="375" y="0" height="352"/></clipPath></defs><rect x="-37.5" width="450" fill="#ffffff" y="-37.499999" height="449.999989" fill-opacity="1"/><rect x="-37.5" width="450" fill="#ffffff" y="-37.499999" height="449.999989" fill-opacity="1"/><g transform="matrix(1, 0, 0, 1, 0, 15)"><g clip-path="url(#f76a0fb5d0)"><g clip-path="url(#cc30654e28)"><path fill="#00d8ff" d="M 201.65625 8.578125 C 199.265625 3.375 194.199219 0.140625 188.441406 0.140625 L 15.269531 0.140625 C 9.515625 0.140625 4.449219 3.375 2.050781 8.578125 C -0.324219 13.734375 0.5 19.628906 4.195312 23.949219 C 4.195312 23.949219 4.203125 23.957031 4.203125 23.957031 L 72.960938 103.953125 L 72.960938 166.289062 C 72.960938 168.957031 74.429688 171.40625 76.777344 172.660156 C 77.84375 173.230469 79.015625 173.515625 80.183594 173.515625 C 81.585938 173.515625 82.980469 173.101562 84.195312 172.300781 L 127.539062 143.40625 C 129.546875 142.0625 130.753906 139.808594 130.753906 137.394531 L 130.753906 103.953125 L 199.515625 23.957031 C 203.214844 19.628906 204.039062 13.734375 201.65625 8.578125 Z M 118.054688 96.566406 C 116.925781 97.878906 116.304688 99.546875 116.304688 101.273438 L 116.304688 133.53125 L 87.410156 152.796875 L 87.410156 101.273438 C 87.410156 99.546875 86.789062 97.878906 85.660156 96.566406 L 15.234375 14.589844 L 188.542969 14.589844 Z M 118.054688 96.566406 " fill-opacity="1" fill-rule="nonzero"/></g><g clip-path="url(#4d79f08d6b)"><path fill="#00d8ff" d="M 362.199219 186.160156 L 344.898438 181.835938 L 340.152344 170.363281 L 349.332031 155.0625 C 349.8125 154.261719 350.222656 153.425781 350.566406 152.558594 C 350.910156 151.6875 351.179688 150.796875 351.371094 149.882812 C 351.566406 148.96875 351.683594 148.042969 351.726562 147.109375 C 351.765625 146.175781 351.730469 145.246094 351.613281 144.316406 C 351.5 143.390625 351.308594 142.476562 351.042969 141.582031 C 350.777344 140.683594 350.441406 139.816406 350.03125 138.976562 C 349.621094 138.136719 349.144531 137.335938 348.597656 136.578125 C 348.054688 135.816406 347.453125 135.105469 346.792969 134.445312 L 327.386719 115.042969 C 326.726562 114.378906 326.015625 113.777344 325.253906 113.230469 C 324.492188 112.6875 323.695312 112.210938 322.855469 111.800781 C 322.015625 111.390625 321.144531 111.050781 320.25 110.785156 C 319.355469 110.519531 318.441406 110.328125 317.515625 110.214844 C 316.585938 110.101562 315.65625 110.0625 314.722656 110.105469 C 313.789062 110.144531 312.863281 110.261719 311.949219 110.457031 C 311.035156 110.652344 310.140625 110.921875 309.273438 111.265625 C 308.402344 111.609375 307.566406 112.019531 306.765625 112.503906 L 291.46875 121.679688 L 279.996094 116.925781 L 275.675781 99.617188 C 275.449219 98.710938 275.148438 97.828125 274.773438 96.96875 C 274.398438 96.113281 273.957031 95.292969 273.449219 94.507812 C 272.9375 93.722656 272.367188 92.988281 271.734375 92.300781 C 271.101562 91.609375 270.417969 90.980469 269.679688 90.402344 C 268.941406 89.828125 268.164062 89.316406 267.339844 88.871094 C 266.519531 88.425781 265.664062 88.054688 264.78125 87.75 C 263.894531 87.445312 262.992188 87.21875 262.070312 87.0625 C 261.148438 86.910156 260.21875 86.832031 259.285156 86.835938 L 231.851562 86.835938 C 230.917969 86.835938 229.988281 86.910156 229.066406 87.066406 C 228.144531 87.21875 227.238281 87.449219 226.355469 87.75 C 225.472656 88.054688 224.617188 88.429688 223.796875 88.875 C 222.972656 89.320312 222.195312 89.832031 221.457031 90.40625 C 220.71875 90.984375 220.035156 91.613281 219.402344 92.304688 C 218.769531 92.992188 218.199219 93.730469 217.6875 94.511719 C 217.179688 95.296875 216.738281 96.117188 216.363281 96.976562 C 215.992188 97.832031 215.691406 98.714844 215.464844 99.621094 L 211.144531 116.925781 L 199.671875 121.679688 L 184.382812 112.503906 C 183.582031 112.023438 182.746094 111.609375 181.875 111.269531 C 181.007812 110.925781 180.113281 110.65625 179.199219 110.460938 C 178.285156 110.269531 177.359375 110.152344 176.425781 110.109375 C 175.492188 110.070312 174.558594 110.105469 173.632812 110.222656 C 172.703125 110.335938 171.792969 110.523438 170.894531 110.792969 C 170 111.058594 169.128906 111.394531 168.289062 111.804688 C 167.449219 112.214844 166.648438 112.691406 165.886719 113.234375 C 165.125 113.777344 164.414062 114.378906 163.753906 115.042969 L 144.34375 134.445312 C 143.683594 135.105469 143.082031 135.816406 142.539062 136.578125 C 141.992188 137.339844 141.515625 138.136719 141.105469 138.976562 C 140.695312 139.820312 140.359375 140.6875 140.089844 141.582031 C 139.824219 142.480469 139.636719 143.390625 139.519531 144.320312 C 139.40625 145.246094 139.371094 146.179688 139.410156 147.113281 C 139.449219 148.046875 139.566406 148.96875 139.761719 149.886719 C 139.957031 150.800781 140.222656 151.691406 140.566406 152.5625 C 140.910156 153.433594 141.320312 154.269531 141.804688 155.070312 L 150.980469 170.363281 L 146.234375 181.835938 L 128.9375 186.160156 C 128.027344 186.386719 127.144531 186.683594 126.289062 187.058594 C 125.429688 187.429688 124.609375 187.871094 123.824219 188.378906 C 123.042969 188.890625 122.304688 189.460938 121.613281 190.089844 C 120.925781 190.722656 120.292969 191.40625 119.71875 192.144531 C 119.140625 192.878906 118.628906 193.660156 118.183594 194.480469 C 117.738281 195.304688 117.363281 196.15625 117.058594 197.039062 C 116.757812 197.925781 116.527344 198.828125 116.375 199.75 C 116.21875 200.671875 116.144531 201.601562 116.144531 202.535156 L 116.144531 229.980469 C 116.144531 230.914062 116.21875 231.84375 116.375 232.765625 C 116.527344 233.6875 116.757812 234.589844 117.058594 235.476562 C 117.363281 236.359375 117.738281 237.210938 118.183594 238.035156 C 118.628906 238.855469 119.140625 239.636719 119.71875 240.371094 C 120.292969 241.109375 120.925781 241.792969 121.613281 242.425781 C 122.304688 243.054688 123.042969 243.625 123.824219 244.136719 C 124.609375 244.644531 125.429688 245.085938 126.289062 245.457031 C 127.144531 245.832031 128.027344 246.128906 128.9375 246.355469 L 146.234375 250.679688 L 150.984375 262.152344 L 141.804688 277.453125 C 141.320312 278.253906 140.910156 279.089844 140.566406 279.957031 C 140.222656 280.828125 139.957031 281.71875 139.761719 282.632812 C 139.566406 283.546875 139.449219 284.472656 139.410156 285.40625 C 139.367188 286.339844 139.40625 287.269531 139.519531 288.199219 C 139.632812 289.125 139.824219 290.039062 140.089844 290.933594 C 140.355469 291.832031 140.695312 292.699219 141.105469 293.539062 C 141.515625 294.378906 141.992188 295.179688 142.535156 295.9375 C 143.078125 296.699219 143.679688 297.410156 144.34375 298.070312 L 163.75 317.476562 C 164.410156 318.136719 165.121094 318.742188 165.878906 319.285156 C 166.640625 319.832031 167.441406 320.308594 168.28125 320.71875 C 169.121094 321.132812 169.988281 321.46875 170.886719 321.734375 C 171.78125 322.003906 172.695312 322.191406 173.621094 322.308594 C 174.550781 322.421875 175.480469 322.457031 176.414062 322.417969 C 177.347656 322.375 178.273438 322.257812 179.1875 322.0625 C 180.101562 321.867188 180.996094 321.597656 181.863281 321.253906 C 182.734375 320.910156 183.570312 320.496094 184.367188 320.011719 L 199.667969 310.835938 L 211.140625 315.589844 L 215.460938 332.898438 C 215.6875 333.808594 215.988281 334.6875 216.363281 335.546875 C 216.734375 336.402344 217.175781 337.222656 217.6875 338.007812 C 218.199219 338.792969 218.769531 339.527344 219.402344 340.214844 C 220.035156 340.90625 220.71875 341.535156 221.457031 342.113281 C 222.191406 342.6875 222.972656 343.199219 223.796875 343.644531 C 224.617188 344.089844 225.46875 344.460938 226.355469 344.765625 C 227.238281 345.070312 228.144531 345.296875 229.066406 345.453125 C 229.988281 345.605469 230.917969 345.683594 231.851562 345.679688 L 259.285156 345.679688 C 260.21875 345.679688 261.148438 345.605469 262.070312 345.449219 C 262.992188 345.296875 263.894531 345.066406 264.78125 344.765625 C 265.664062 344.460938 266.515625 344.085938 267.339844 343.640625 C 268.160156 343.195312 268.941406 342.683594 269.679688 342.109375 C 270.414062 341.53125 271.101562 340.902344 271.730469 340.210938 C 272.363281 339.523438 272.933594 338.785156 273.445312 338.003906 C 273.953125 337.21875 274.394531 336.398438 274.769531 335.539062 C 275.144531 334.683594 275.441406 333.800781 275.667969 332.894531 L 279.988281 315.589844 L 291.460938 310.835938 L 306.75 320.011719 C 307.550781 320.496094 308.386719 320.910156 309.257812 321.253906 C 310.125 321.597656 311.019531 321.871094 311.933594 322.066406 C 312.847656 322.261719 313.773438 322.378906 314.707031 322.421875 C 315.644531 322.460938 316.574219 322.425781 317.503906 322.3125 C 318.433594 322.195312 319.34375 322.007812 320.242188 321.738281 C 321.140625 321.472656 322.007812 321.132812 322.847656 320.722656 C 323.6875 320.3125 324.488281 319.832031 325.25 319.289062 C 326.007812 318.742188 326.71875 318.136719 327.378906 317.476562 L 346.789062 298.074219 C 347.449219 297.414062 348.054688 296.703125 348.597656 295.945312 C 349.140625 295.183594 349.617188 294.382812 350.027344 293.542969 C 350.441406 292.703125 350.777344 291.832031 351.042969 290.9375 C 351.308594 290.039062 351.5 289.128906 351.613281 288.199219 C 351.730469 287.269531 351.765625 286.339844 351.726562 285.40625 C 351.683594 284.472656 351.566406 283.546875 351.375 282.632812 C 351.179688 281.71875 350.910156 280.824219 350.566406 279.953125 C 350.226562 279.085938 349.8125 278.25 349.332031 277.445312 L 340.152344 262.152344 L 344.902344 250.679688 L 362.199219 246.355469 C 363.109375 246.128906 363.992188 245.832031 364.847656 245.457031 C 365.707031 245.085938 366.527344 244.644531 367.3125 244.136719 C 368.09375 243.625 368.832031 243.054688 369.519531 242.425781 C 370.210938 241.792969 370.84375 241.109375 371.417969 240.371094 C 371.992188 239.632812 372.503906 238.855469 372.949219 238.035156 C 373.394531 237.210938 373.769531 236.359375 374.074219 235.472656 C 374.378906 234.589844 374.605469 233.6875 374.761719 232.765625 C 374.914062 231.84375 374.992188 230.914062 374.988281 229.980469 L 374.988281 202.535156 C 374.992188 201.601562 374.914062 200.671875 374.761719 199.75 C 374.605469 198.828125 374.378906 197.925781 374.074219 197.039062 C 373.769531 196.15625 373.394531 195.304688 372.949219 194.480469 C 372.503906 193.660156 371.992188 192.878906 371.417969 192.144531 C 370.839844 191.40625 370.207031 190.722656 369.519531 190.089844 C 368.828125 189.460938 368.09375 188.890625 367.308594 188.378906 C 366.523438 187.871094 365.703125 187.429688 364.84375 187.058594 C 363.988281 186.683594 363.105469 186.386719 362.199219 186.160156 Z M 363.734375 229.980469 C 363.734375 230.605469 363.632812 231.21875 363.429688 231.8125 C 363.226562 232.40625 362.929688 232.949219 362.542969 233.445312 C 362.15625 233.941406 361.703125 234.359375 361.175781 234.699219 C 360.648438 235.042969 360.082031 235.289062 359.472656 235.441406 L 339.425781 240.453125 C 338.5625 240.667969 337.792969 241.066406 337.117188 241.648438 C 336.441406 242.230469 335.933594 242.933594 335.589844 243.757812 L 328.667969 260.46875 C 328.328125 261.292969 328.191406 262.148438 328.257812 263.039062 C 328.324219 263.925781 328.585938 264.753906 329.042969 265.519531 L 339.679688 283.234375 C 340.003906 283.773438 340.230469 284.351562 340.359375 284.964844 C 340.492188 285.578125 340.519531 286.195312 340.441406 286.820312 C 340.367188 287.445312 340.1875 288.039062 339.914062 288.601562 C 339.636719 289.167969 339.277344 289.671875 338.832031 290.113281 L 319.425781 309.519531 C 318.980469 309.964844 318.476562 310.324219 317.914062 310.601562 C 317.347656 310.875 316.753906 311.054688 316.132812 311.128906 C 315.507812 311.207031 314.886719 311.179688 314.273438 311.046875 C 313.660156 310.917969 313.082031 310.6875 312.546875 310.363281 L 294.816406 299.730469 C 294.050781 299.269531 293.226562 299.007812 292.335938 298.941406 C 291.449219 298.875 290.59375 299.011719 289.769531 299.355469 L 273.066406 306.273438 C 272.242188 306.617188 271.539062 307.125 270.957031 307.800781 C 270.375 308.476562 269.972656 309.246094 269.757812 310.109375 L 264.746094 330.164062 C 264.59375 330.773438 264.347656 331.339844 264.003906 331.867188 C 263.664062 332.394531 263.246094 332.851562 262.75 333.238281 C 262.253906 333.625 261.710938 333.917969 261.117188 334.121094 C 260.523438 334.328125 259.910156 334.429688 259.285156 334.425781 L 231.851562 334.425781 C 231.222656 334.429688 230.613281 334.328125 230.019531 334.125 C 229.425781 333.921875 228.878906 333.625 228.386719 333.238281 C 227.890625 332.855469 227.472656 332.398438 227.128906 331.871094 C 226.789062 331.34375 226.539062 330.777344 226.390625 330.167969 L 221.378906 310.109375 C 221.160156 309.246094 220.761719 308.476562 220.175781 307.800781 C 219.59375 307.125 218.890625 306.617188 218.070312 306.273438 L 201.363281 299.355469 C 200.675781 299.070312 199.957031 298.929688 199.210938 298.929688 C 198.171875 298.925781 197.207031 299.191406 196.320312 299.730469 L 178.582031 310.363281 C 178.042969 310.6875 177.46875 310.914062 176.855469 311.046875 C 176.242188 311.175781 175.625 311.203125 175.003906 311.128906 C 174.378906 311.050781 173.785156 310.875 173.222656 310.597656 C 172.660156 310.324219 172.15625 309.960938 171.714844 309.515625 L 152.300781 290.113281 C 151.859375 289.667969 151.5 289.167969 151.222656 288.601562 C 150.949219 288.039062 150.773438 287.445312 150.695312 286.820312 C 150.621094 286.199219 150.644531 285.582031 150.777344 284.96875 C 150.90625 284.351562 151.132812 283.777344 151.457031 283.238281 L 162.09375 265.515625 C 162.550781 264.753906 162.8125 263.925781 162.878906 263.035156 C 162.945312 262.148438 162.808594 261.289062 162.46875 260.464844 L 155.542969 243.757812 C 155.203125 242.933594 154.695312 242.230469 154.019531 241.648438 C 153.34375 241.066406 152.574219 240.667969 151.707031 240.453125 L 131.660156 235.441406 C 131.050781 235.289062 130.484375 235.042969 129.957031 234.699219 C 129.429688 234.359375 128.972656 233.941406 128.589844 233.445312 C 128.203125 232.949219 127.90625 232.40625 127.703125 231.8125 C 127.5 231.21875 127.398438 230.605469 127.398438 229.980469 L 127.398438 202.535156 C 127.398438 201.910156 127.5 201.296875 127.703125 200.703125 C 127.90625 200.109375 128.203125 199.566406 128.589844 199.070312 C 128.976562 198.578125 129.433594 198.15625 129.957031 197.816406 C 130.484375 197.472656 131.054688 197.226562 131.664062 197.074219 L 151.707031 192.0625 C 152.574219 191.847656 153.34375 191.449219 154.019531 190.867188 C 154.695312 190.285156 155.203125 189.582031 155.542969 188.757812 L 162.464844 172.046875 C 162.804688 171.222656 162.945312 170.367188 162.878906 169.480469 C 162.8125 168.589844 162.550781 167.761719 162.09375 167 L 151.457031 149.28125 C 151.132812 148.742188 150.90625 148.167969 150.773438 147.554688 C 150.644531 146.9375 150.617188 146.320312 150.695312 145.695312 C 150.769531 145.074219 150.945312 144.480469 151.222656 143.914062 C 151.5 143.351562 151.859375 142.847656 152.300781 142.402344 L 171.710938 123 C 172.15625 122.554688 172.660156 122.195312 173.222656 121.917969 C 173.789062 121.640625 174.382812 121.464844 175.003906 121.386719 C 175.628906 121.3125 176.246094 121.339844 176.863281 121.46875 C 177.476562 121.601562 178.054688 121.828125 178.589844 122.152344 L 196.320312 132.785156 C 197.082031 133.246094 197.90625 133.507812 198.796875 133.574219 C 199.683594 133.640625 200.542969 133.5 201.363281 133.160156 L 218.070312 126.242188 C 218.890625 125.898438 219.59375 125.390625 220.175781 124.714844 C 220.761719 124.039062 221.160156 123.269531 221.378906 122.40625 L 226.390625 102.351562 C 226.539062 101.742188 226.785156 101.175781 227.128906 100.648438 C 227.46875 100.121094 227.890625 99.664062 228.382812 99.277344 C 228.878906 98.890625 229.425781 98.597656 230.019531 98.394531 C 230.613281 98.1875 231.222656 98.085938 231.851562 98.089844 L 259.285156 98.089844 C 259.910156 98.085938 260.523438 98.1875 261.117188 98.390625 C 261.710938 98.597656 262.253906 98.890625 262.75 99.277344 C 263.242188 99.664062 263.664062 100.117188 264.003906 100.644531 C 264.347656 101.171875 264.59375 101.738281 264.746094 102.347656 L 269.757812 122.40625 C 269.972656 123.269531 270.375 124.039062 270.957031 124.714844 C 271.539062 125.390625 272.242188 125.898438 273.066406 126.242188 L 289.769531 133.160156 C 290.59375 133.5 291.449219 133.640625 292.335938 133.574219 C 293.226562 133.507812 294.050781 133.246094 294.816406 132.785156 L 312.554688 122.152344 C 313.089844 121.828125 313.664062 121.601562 314.277344 121.472656 C 314.890625 121.339844 315.507812 121.3125 316.132812 121.390625 C 316.753906 121.46875 317.347656 121.644531 317.910156 121.917969 C 318.472656 122.195312 318.976562 122.554688 319.417969 123 L 338.828125 142.402344 C 339.269531 142.847656 339.628906 143.351562 339.90625 143.914062 C 340.179688 144.476562 340.355469 145.070312 340.433594 145.695312 C 340.507812 146.316406 340.484375 146.933594 340.351562 147.546875 C 340.222656 148.164062 339.996094 148.738281 339.671875 149.277344 L 329.039062 167 C 328.582031 167.761719 328.320312 168.589844 328.253906 169.480469 C 328.1875 170.367188 328.324219 171.226562 328.664062 172.050781 L 335.589844 188.757812 C 335.929688 189.582031 336.4375 190.285156 337.113281 190.867188 C 337.789062 191.449219 338.5625 191.847656 339.425781 192.0625 L 359.472656 197.074219 C 360.082031 197.226562 360.652344 197.472656 361.175781 197.8125 C 361.703125 198.15625 362.160156 198.574219 362.546875 199.070312 C 362.933594 199.566406 363.226562 200.109375 363.433594 200.703125 C 363.636719 201.296875 363.738281 201.90625 363.738281 202.535156 Z M 363.734375 229.980469 " fill-opacity="1" fill-rule="nonzero"/></g><path fill="#00d8ff" d="M 245.566406 154.359375 C 243.539062 154.359375 241.515625 154.460938 239.5 154.65625 C 237.480469 154.855469 235.480469 155.152344 233.492188 155.550781 C 231.503906 155.945312 229.539062 156.4375 227.597656 157.023438 C 225.660156 157.613281 223.753906 158.296875 221.878906 159.070312 C 220.007812 159.847656 218.175781 160.714844 216.386719 161.667969 C 214.601562 162.625 212.863281 163.664062 211.179688 164.792969 C 209.492188 165.917969 207.867188 167.125 206.300781 168.410156 C 204.730469 169.695312 203.230469 171.054688 201.796875 172.488281 C 200.363281 173.921875 199.003906 175.421875 197.71875 176.992188 C 196.433594 178.558594 195.226562 180.183594 194.101562 181.871094 C 192.972656 183.554688 191.933594 185.292969 190.976562 187.078125 C 190.023438 188.867188 189.15625 190.699219 188.378906 192.570312 C 187.605469 194.445312 186.921875 196.351562 186.335938 198.289062 C 185.746094 200.230469 185.253906 202.195312 184.859375 204.183594 C 184.460938 206.171875 184.164062 208.171875 183.96875 210.191406 C 183.769531 212.207031 183.667969 214.230469 183.667969 216.257812 C 183.667969 218.285156 183.769531 220.308594 183.96875 222.324219 C 184.164062 224.34375 184.460938 226.34375 184.859375 228.332031 C 185.253906 230.320312 185.746094 232.285156 186.335938 234.226562 C 186.921875 236.164062 187.605469 238.074219 188.378906 239.945312 C 189.15625 241.816406 190.023438 243.648438 190.976562 245.4375 C 191.933594 247.222656 192.972656 248.960938 194.101562 250.648438 C 195.226562 252.332031 196.433594 253.957031 197.71875 255.527344 C 199.003906 257.09375 200.363281 258.59375 201.796875 260.027344 C 203.230469 261.460938 204.730469 262.820312 206.300781 264.105469 C 207.867188 265.390625 209.492188 266.597656 211.179688 267.722656 C 212.863281 268.851562 214.601562 269.890625 216.386719 270.847656 C 218.175781 271.804688 220.007812 272.667969 221.878906 273.445312 C 223.753906 274.21875 225.660156 274.902344 227.597656 275.492188 C 229.539062 276.078125 231.503906 276.570312 233.492188 276.964844 C 235.480469 277.363281 237.480469 277.660156 239.5 277.859375 C 241.515625 278.058594 243.539062 278.15625 245.566406 278.15625 C 247.59375 278.15625 249.617188 278.058594 251.632812 277.859375 C 253.652344 277.660156 255.65625 277.363281 257.644531 276.964844 C 259.632812 276.570312 261.59375 276.078125 263.535156 275.492188 C 265.476562 274.902344 267.382812 274.21875 269.253906 273.445312 C 271.128906 272.667969 272.957031 271.804688 274.746094 270.847656 C 276.535156 269.890625 278.269531 268.851562 279.957031 267.722656 C 281.640625 266.597656 283.265625 265.390625 284.835938 264.105469 C 286.402344 262.820312 287.902344 261.460938 289.335938 260.027344 C 290.769531 258.59375 292.128906 257.09375 293.414062 255.527344 C 294.699219 253.957031 295.90625 252.332031 297.035156 250.648438 C 298.160156 248.960938 299.199219 247.222656 300.15625 245.4375 C 301.113281 243.648438 301.976562 241.816406 302.753906 239.945312 C 303.527344 238.074219 304.210938 236.164062 304.800781 234.226562 C 305.386719 232.285156 305.878906 230.320312 306.277344 228.332031 C 306.671875 226.34375 306.96875 224.34375 307.167969 222.324219 C 307.367188 220.308594 307.464844 218.285156 307.464844 216.257812 C 307.460938 214.230469 307.359375 212.210938 307.160156 210.191406 C 306.960938 208.175781 306.660156 206.175781 306.261719 204.1875 C 305.867188 202.199219 305.371094 200.238281 304.78125 198.296875 C 304.191406 196.359375 303.511719 194.453125 302.734375 192.582031 C 301.957031 190.710938 301.089844 188.882812 300.132812 187.09375 C 299.179688 185.308594 298.136719 183.570312 297.011719 181.886719 C 295.882812 180.203125 294.679688 178.578125 293.390625 177.011719 C 292.105469 175.445312 290.746094 173.945312 289.3125 172.511719 C 287.878906 171.078125 286.382812 169.71875 284.816406 168.433594 C 283.25 167.148438 281.621094 165.941406 279.9375 164.816406 C 278.253906 163.6875 276.519531 162.648438 274.730469 161.691406 C 272.945312 160.734375 271.113281 159.867188 269.242188 159.089844 C 267.371094 158.316406 265.464844 157.632812 263.527344 157.042969 C 261.585938 156.453125 259.625 155.957031 257.636719 155.5625 C 255.648438 155.164062 253.648438 154.867188 251.632812 154.664062 C 249.613281 154.464844 247.59375 154.363281 245.566406 154.359375 Z M 245.566406 266.902344 C 243.910156 266.902344 242.253906 266.820312 240.601562 266.65625 C 238.953125 266.496094 237.3125 266.253906 235.6875 265.929688 C 234.058594 265.605469 232.453125 265.203125 230.867188 264.722656 C 229.277344 264.238281 227.71875 263.679688 226.1875 263.046875 C 224.652344 262.410156 223.15625 261.703125 221.695312 260.921875 C 220.230469 260.140625 218.808594 259.289062 217.429688 258.367188 C 216.050781 257.445312 214.722656 256.457031 213.4375 255.40625 C 212.15625 254.355469 210.929688 253.242188 209.757812 252.070312 C 208.582031 250.894531 207.472656 249.667969 206.417969 248.386719 C 205.367188 247.105469 204.378906 245.773438 203.457031 244.394531 C 202.535156 243.015625 201.683594 241.59375 200.902344 240.132812 C 200.121094 238.667969 199.414062 237.171875 198.777344 235.636719 C 198.144531 234.105469 197.585938 232.546875 197.105469 230.960938 C 196.621094 229.371094 196.21875 227.765625 195.894531 226.136719 C 195.574219 224.511719 195.328125 222.871094 195.167969 221.222656 C 195.003906 219.570312 194.921875 217.917969 194.921875 216.257812 C 194.921875 214.597656 195.003906 212.945312 195.167969 211.292969 C 195.328125 209.644531 195.574219 208.003906 195.894531 206.378906 C 196.21875 204.75 196.621094 203.144531 197.105469 201.558594 C 197.585938 199.96875 198.144531 198.410156 198.777344 196.878906 C 199.414062 195.34375 200.121094 193.847656 200.902344 192.382812 C 201.683594 190.921875 202.535156 189.5 203.457031 188.121094 C 204.378906 186.742188 205.367188 185.410156 206.417969 184.128906 C 207.472656 182.847656 208.582031 181.621094 209.757812 180.449219 C 210.929688 179.273438 212.15625 178.160156 213.4375 177.109375 C 214.722656 176.058594 216.050781 175.070312 217.429688 174.148438 C 218.808594 173.226562 220.230469 172.375 221.695312 171.59375 C 223.15625 170.8125 224.652344 170.105469 226.1875 169.46875 C 227.71875 168.835938 229.277344 168.277344 230.867188 167.792969 C 232.453125 167.3125 234.058594 166.910156 235.6875 166.585938 C 237.3125 166.265625 238.953125 166.019531 240.601562 165.859375 C 242.253906 165.695312 243.910156 165.613281 245.566406 165.613281 C 247.226562 165.613281 248.878906 165.695312 250.53125 165.859375 C 252.179688 166.019531 253.820312 166.265625 255.445312 166.585938 C 257.074219 166.910156 258.679688 167.3125 260.269531 167.792969 C 261.855469 168.277344 263.414062 168.835938 264.949219 169.46875 C 266.480469 170.105469 267.976562 170.8125 269.441406 171.59375 C 270.902344 172.375 272.324219 173.226562 273.703125 174.148438 C 275.082031 175.070312 276.414062 176.058594 277.695312 177.109375 C 278.976562 178.160156 280.203125 179.273438 281.378906 180.449219 C 282.550781 181.621094 283.664062 182.847656 284.714844 184.128906 C 285.765625 185.410156 286.753906 186.742188 287.675781 188.121094 C 288.597656 189.5 289.449219 190.921875 290.230469 192.382812 C 291.011719 193.847656 291.722656 195.34375 292.355469 196.878906 C 292.992188 198.410156 293.546875 199.96875 294.03125 201.558594 C 294.511719 203.144531 294.914062 204.75 295.238281 206.378906 C 295.5625 208.003906 295.804688 209.644531 295.96875 211.292969 C 296.128906 212.945312 296.210938 214.597656 296.210938 216.257812 C 296.207031 217.917969 296.125 219.570312 295.960938 221.21875 C 295.796875 222.871094 295.554688 224.507812 295.226562 226.132812 C 294.902344 227.761719 294.5 229.367188 294.015625 230.953125 C 293.535156 232.539062 292.976562 234.097656 292.339844 235.628906 C 291.707031 237.160156 290.996094 238.65625 290.214844 240.121094 C 289.433594 241.582031 288.582031 243.003906 287.660156 244.382812 C 286.738281 245.757812 285.75 247.089844 284.699219 248.371094 C 283.644531 249.652344 282.535156 250.878906 281.359375 252.050781 C 280.1875 253.226562 278.960938 254.335938 277.679688 255.390625 C 276.398438 256.441406 275.066406 257.429688 273.691406 258.347656 C 272.3125 259.269531 270.890625 260.125 269.429688 260.90625 C 267.96875 261.6875 266.46875 262.394531 264.9375 263.03125 C 263.40625 263.667969 261.847656 264.226562 260.261719 264.707031 C 258.675781 265.191406 257.070312 265.59375 255.441406 265.917969 C 253.816406 266.246094 252.179688 266.488281 250.527344 266.652344 C 248.878906 266.816406 247.226562 266.898438 245.566406 266.902344 Z M 245.566406 266.902344 " fill-opacity="1" fill-rule="nonzero"/></g></g></svg>