<svg xmlns="http://www.w3.org/2000/svg" xmlns:xlink="http://www.w3.org/1999/xlink" width="500" zoomAndPan="magnify" viewBox="0 0 375 374.999991" height="500" preserveAspectRatio="xMidYMid meet" version="1.0"><defs><clipPath id="92100ec4ee"><path d="M 4 3 L 371.53125 3 L 371.53125 372 L 4 372 Z M 4 3 " clip-rule="nonzero"/></clipPath></defs><rect x="-37.5" width="450" fill="#ffffff" y="-37.499999" height="449.999989" fill-opacity="1"/><rect x="-37.5" width="450" fill="#ffffff" y="-37.499999" height="449.999989" fill-opacity="1"/><g clip-path="url(#92100ec4ee)"><path fill="#00d8ff" d="M 118.417969 68.152344 C 120.652344 69.285156 123.363281 68.839844 125.117188 67.046875 C 151.625 39.980469 199.460938 51.910156 220.191406 61.480469 L 214.082031 72.058594 C 213 73.933594 213.0625 76.257812 214.246094 78.074219 C 215.316406 79.707031 217.132812 80.675781 219.058594 80.675781 C 219.265625 80.675781 219.476562 80.664062 219.6875 80.640625 L 278.964844 74.132812 C 280.722656 73.941406 282.289062 72.953125 283.21875 71.453125 C 284.152344 69.953125 284.339844 68.109375 283.734375 66.453125 L 262.214844 7.558594 C 261.449219 5.460938 259.539062 4 257.316406 3.804688 C 255.09375 3.613281 252.960938 4.722656 251.84375 6.65625 L 245.875 16.996094 C 216.054688 1.605469 182.535156 0.0390625 155.179688 12.988281 C 133.289062 23.351562 118.769531 41.25 115.34375 62.097656 C 114.9375 64.570312 116.183594 67.019531 118.417969 68.152344 Z M 160.097656 23.371094 C 185.597656 11.300781 217.402344 13.664062 245.171875 29.699219 C 246.492188 30.460938 248.0625 30.667969 249.53125 30.273438 C 251.003906 29.878906 252.257812 28.917969 253.019531 27.597656 L 255.644531 23.050781 L 270.429688 63.511719 L 229.703125 67.984375 L 233.160156 61.996094 C 233.921875 60.679688 234.125 59.109375 233.730469 57.640625 C 233.339844 56.167969 232.375 54.914062 231.054688 54.152344 C 220.871094 48.269531 201.046875 40.851562 178.703125 39.300781 C 175.960938 39.109375 173.273438 39.015625 170.636719 39.015625 C 156.234375 39.015625 143.453125 41.847656 132.738281 47.375 C 138.566406 37.464844 147.980469 29.109375 160.097656 23.371094 Z M 366.882812 170.71875 L 346.328125 167.429688 C 345.195312 163.875 343.765625 160.417969 342.046875 157.101562 L 354.257812 140.238281 C 355.910156 137.953125 355.660156 134.804688 353.664062 132.808594 L 337.804688 116.949219 C 335.808594 114.953125 332.660156 114.703125 330.375 116.355469 L 313.511719 128.566406 C 310.191406 126.847656 306.738281 125.414062 303.183594 124.28125 L 299.894531 103.730469 C 299.449219 100.945312 297.042969 98.894531 294.222656 98.894531 L 271.792969 98.894531 C 268.96875 98.894531 266.566406 100.945312 266.121094 103.730469 L 262.828125 124.28125 C 259.273438 125.414062 255.820312 126.847656 252.5 128.566406 L 235.636719 116.355469 C 233.351562 114.699219 230.203125 114.953125 228.207031 116.949219 L 212.347656 132.808594 C 210.351562 134.804688 210.101562 137.953125 211.757812 140.238281 L 223.964844 157.101562 C 222.246094 160.421875 220.816406 163.875 219.683594 167.429688 L 199.128906 170.71875 C 196.34375 171.167969 194.292969 173.570312 194.292969 176.390625 L 194.292969 198.820312 C 194.292969 201.644531 196.34375 204.046875 199.128906 204.492188 L 219.683594 207.78125 C 220.816406 211.339844 222.246094 214.792969 223.964844 218.113281 L 211.753906 234.976562 C 210.101562 237.261719 210.351562 240.410156 212.347656 242.40625 L 228.207031 258.265625 C 230.203125 260.261719 233.351562 260.511719 235.636719 258.855469 L 252.5 246.648438 C 255.820312 248.367188 259.273438 249.800781 262.828125 250.933594 L 266.117188 271.480469 C 266.5625 274.269531 268.96875 276.320312 271.789062 276.320312 L 294.21875 276.320312 C 297.042969 276.320312 299.445312 274.269531 299.890625 271.480469 L 303.183594 250.929688 C 306.738281 249.796875 310.191406 248.363281 313.511719 246.648438 L 330.375 258.855469 C 332.660156 260.511719 335.808594 260.261719 337.804688 258.265625 L 353.664062 242.40625 C 355.660156 240.410156 355.910156 237.261719 354.257812 234.976562 L 342.046875 218.113281 C 343.765625 214.792969 345.199219 211.335938 346.332031 207.78125 L 366.882812 204.492188 C 369.667969 204.046875 371.71875 201.644531 371.71875 198.820312 L 371.71875 176.390625 C 371.71875 173.570312 369.667969 171.167969 366.882812 170.71875 Z M 360.230469 193.925781 L 340.910156 197.015625 C 338.652344 197.378906 336.820312 199.046875 336.253906 201.265625 C 334.96875 206.292969 332.96875 211.113281 330.3125 215.59375 C 329.144531 217.5625 329.257812 220.039062 330.601562 221.890625 L 342.078125 237.746094 L 333.144531 246.679688 L 317.292969 235.199219 C 315.4375 233.859375 312.960938 233.746094 310.992188 234.914062 C 306.515625 237.566406 301.695312 239.566406 296.664062 240.855469 C 294.449219 241.421875 292.777344 243.25 292.414062 245.511719 L 289.324219 264.832031 L 276.691406 264.832031 L 273.597656 245.511719 C 273.234375 243.253906 271.566406 241.421875 269.347656 240.855469 C 264.320312 239.570312 259.5 237.570312 255.019531 234.914062 C 253.050781 233.746094 250.578125 233.859375 248.722656 235.203125 L 232.867188 246.679688 L 223.933594 237.746094 L 235.414062 221.890625 C 236.757812 220.039062 236.867188 217.5625 235.703125 215.59375 C 233.046875 211.117188 231.046875 206.296875 229.761719 201.265625 C 229.191406 199.046875 227.363281 197.378906 225.101562 197.015625 L 205.78125 193.925781 L 205.78125 181.289062 L 225.101562 178.199219 C 227.363281 177.835938 229.191406 176.167969 229.761719 173.949219 C 231.046875 168.921875 233.042969 164.101562 235.699219 159.621094 C 236.867188 157.652344 236.753906 155.175781 235.414062 153.324219 L 223.933594 137.46875 L 232.867188 128.535156 L 248.71875 140.011719 C 250.574219 141.355469 253.050781 141.46875 255.019531 140.300781 C 259.5 137.644531 264.320312 135.644531 269.347656 134.359375 C 271.566406 133.792969 273.234375 131.964844 273.597656 129.703125 L 276.691406 110.382812 L 289.324219 110.382812 L 292.414062 129.703125 C 292.777344 131.964844 294.445312 133.792969 296.664062 134.359375 C 301.691406 135.644531 306.511719 137.644531 310.992188 140.300781 C 312.960938 141.46875 315.4375 141.355469 317.292969 140.015625 L 333.144531 128.535156 L 342.078125 137.46875 L 330.597656 153.324219 C 329.257812 155.179688 329.144531 157.652344 330.3125 159.621094 C 332.964844 164.097656 334.964844 168.917969 336.253906 173.949219 C 336.820312 176.167969 338.648438 177.835938 340.910156 178.199219 L 360.230469 181.289062 Z M 283.007812 148.722656 C 261.566406 148.722656 244.121094 166.167969 244.121094 187.609375 C 244.121094 209.050781 261.566406 226.492188 283.007812 226.492188 C 304.449219 226.492188 321.890625 209.050781 321.890625 187.609375 C 321.890625 166.167969 304.449219 148.722656 283.007812 148.722656 Z M 283.007812 215.003906 C 267.898438 215.003906 255.609375 202.714844 255.609375 187.609375 C 255.609375 172.5 267.898438 160.210938 283.007812 160.210938 C 298.113281 160.210938 310.402344 172.5 310.402344 187.609375 C 310.402344 202.714844 298.113281 215.003906 283.007812 215.003906 Z M 119.761719 262.65625 L 119.761719 258.378906 C 124.707031 256.089844 128.152344 251.09375 128.152344 245.292969 L 128.152344 236.804688 C 129.464844 214.875 134.898438 205.582031 140.15625 196.597656 C 145.054688 188.230469 149.679688 180.324219 149.679688 164.976562 C 149.679688 132.347656 123.136719 105.804688 90.507812 105.804688 C 57.882812 105.804688 31.335938 132.347656 31.335938 164.976562 C 31.335938 180.324219 35.964844 188.230469 40.859375 196.597656 C 46.117188 205.582031 51.554688 214.875 52.863281 236.804688 L 52.863281 245.292969 C 52.863281 251.316406 56.578125 256.484375 61.835938 258.640625 L 61.835938 262.65625 C 61.835938 268.65625 65.519531 273.808594 70.738281 275.980469 L 70.738281 280.023438 C 70.738281 287.976562 77.210938 294.449219 85.164062 294.449219 L 96.433594 294.449219 C 104.386719 294.449219 110.859375 287.976562 110.859375 280.023438 L 110.859375 275.980469 C 116.078125 273.808594 119.761719 268.65625 119.761719 262.65625 Z M 105.335938 265.59375 L 76.261719 265.59375 C 74.667969 265.59375 73.324219 264.25 73.324219 262.65625 L 73.324219 259.71875 L 108.273438 259.71875 L 108.273438 262.65625 C 108.273438 264.25 106.925781 265.59375 105.335938 265.59375 Z M 67.289062 248.230469 C 65.699219 248.230469 64.351562 246.886719 64.351562 245.292969 L 64.351562 242.355469 L 116.664062 242.355469 L 116.664062 245.292969 C 116.664062 246.886719 115.320312 248.230469 113.726562 248.230469 Z M 75.539062 172.039062 L 68.867188 172.039062 C 65.1875 172.039062 62.195312 169.046875 62.195312 165.367188 C 62.195312 161.6875 65.1875 158.695312 68.867188 158.695312 C 72.546875 158.695312 75.539062 161.6875 75.539062 165.367188 Z M 93.988281 230.867188 L 87.027344 230.867188 L 87.027344 183.527344 L 93.988281 183.527344 Z M 42.828125 164.976562 C 42.828125 138.683594 64.214844 117.292969 90.507812 117.292969 C 116.800781 117.292969 138.191406 138.683594 138.191406 164.976562 C 138.191406 177.210938 134.679688 183.207031 130.242188 190.796875 C 125.253906 199.316406 119.140625 209.765625 117.09375 230.867188 L 105.480469 230.867188 L 105.480469 183.527344 L 112.148438 183.527344 C 122.164062 183.527344 130.308594 175.382812 130.308594 165.367188 C 130.308594 155.355469 122.164062 147.207031 112.148438 147.207031 C 102.136719 147.207031 93.988281 155.355469 93.988281 165.367188 L 93.988281 172.039062 L 87.027344 172.039062 L 87.027344 165.367188 C 87.027344 155.355469 78.878906 147.207031 68.867188 147.207031 C 58.851562 147.207031 50.707031 155.355469 50.707031 165.367188 C 50.707031 175.382812 58.851562 183.527344 68.867188 183.527344 L 75.539062 183.527344 L 75.539062 230.867188 L 63.921875 230.867188 C 61.875 209.765625 55.761719 199.316406 50.777344 190.796875 C 46.335938 183.207031 42.828125 177.210938 42.828125 164.976562 Z M 105.480469 172.039062 L 105.480469 165.367188 C 105.480469 161.6875 108.472656 158.695312 112.148438 158.695312 C 115.828125 158.695312 118.820312 161.6875 118.820312 165.367188 C 118.820312 169.046875 115.828125 172.039062 112.148438 172.039062 Z M 96.433594 282.960938 L 85.164062 282.960938 C 83.574219 282.960938 82.226562 281.613281 82.226562 280.023438 L 82.226562 277.082031 L 99.371094 277.082031 L 99.371094 280.023438 C 99.371094 281.613281 98.023438 282.960938 96.433594 282.960938 Z M 84.761719 93.488281 L 84.761719 80.90625 C 84.761719 77.734375 87.335938 75.160156 90.507812 75.160156 C 93.679688 75.160156 96.253906 77.734375 96.253906 80.90625 L 96.253906 93.488281 C 96.253906 96.660156 93.679688 99.234375 90.507812 99.234375 C 87.335938 99.234375 84.761719 96.660156 84.761719 93.488281 Z M 38.945312 96.257812 C 37.359375 93.511719 38.300781 90 41.046875 88.414062 C 43.796875 86.828125 47.308594 87.769531 48.894531 90.515625 L 55.1875 101.414062 C 56.773438 104.160156 55.832031 107.675781 53.085938 109.261719 C 52.179688 109.785156 51.191406 110.03125 50.21875 110.03125 C 48.230469 110.03125 46.300781 109 45.238281 107.160156 Z M 25.6875 136.65625 C 24.625 138.5 22.695312 139.53125 20.707031 139.53125 C 19.734375 139.53125 18.746094 139.28125 17.839844 138.757812 L 6.945312 132.464844 C 4.195312 130.878906 3.253906 127.367188 4.839844 124.621094 C 6.425781 121.871094 9.941406 120.929688 12.6875 122.515625 L 23.585938 128.808594 C 26.332031 130.394531 27.273438 133.910156 25.6875 136.65625 Z M 139.96875 88.414062 C 142.714844 90 143.65625 93.511719 142.070312 96.257812 L 135.777344 107.160156 C 134.714844 109 132.78125 110.03125 130.796875 110.03125 C 129.824219 110.03125 128.835938 109.78125 127.929688 109.261719 C 125.183594 107.675781 124.242188 104.160156 125.828125 101.414062 L 132.121094 90.515625 C 133.707031 87.765625 137.21875 86.824219 139.96875 88.414062 Z M 176.175781 124.621094 C 177.761719 127.367188 176.820312 130.878906 174.074219 132.46875 L 163.175781 138.757812 C 162.269531 139.28125 161.28125 139.53125 160.308594 139.53125 C 158.320312 139.53125 156.390625 138.5 155.328125 136.65625 C 153.742188 133.910156 154.683594 130.394531 157.429688 128.808594 L 168.328125 122.515625 C 171.074219 120.933594 174.589844 121.871094 176.175781 124.621094 Z M 276.3125 310.082031 C 274.078125 308.953125 271.367188 309.398438 269.613281 311.1875 C 244.855469 336.464844 200.246094 325.496094 180.59375 316.523438 L 186.183594 306.847656 C 187.265625 304.972656 187.199219 302.648438 186.015625 300.835938 C 184.832031 299.019531 182.734375 298.027344 180.578125 298.265625 L 124.644531 304.40625 C 122.890625 304.597656 121.324219 305.585938 120.390625 307.085938 C 119.460938 308.585938 119.269531 310.429688 119.878906 312.085938 L 140.183594 367.660156 C 140.949219 369.753906 142.859375 371.21875 145.082031 371.410156 C 145.246094 371.425781 145.414062 371.429688 145.578125 371.429688 C 147.617188 371.429688 149.519531 370.347656 150.554688 368.558594 L 156.03125 359.070312 C 184.1875 373.507812 215.796875 374.9375 241.617188 362.714844 C 262.367188 352.890625 276.132812 335.914062 279.382812 316.136719 C 279.792969 313.667969 278.546875 311.214844 276.3125 310.082031 Z M 236.699219 352.332031 C 212.734375 363.675781 182.839844 361.449219 156.726562 346.375 C 155.847656 345.863281 154.855469 345.605469 153.855469 345.605469 C 153.359375 345.605469 152.859375 345.667969 152.371094 345.800781 C 150.898438 346.195312 149.644531 347.15625 148.882812 348.476562 L 146.753906 352.164062 L 133.183594 315.027344 L 170.5625 310.921875 L 167.621094 316.019531 C 166.035156 318.765625 166.976562 322.277344 169.722656 323.867188 C 179.363281 329.429688 198.121094 336.449219 219.261719 337.921875 C 235.578125 339.050781 249.96875 336.605469 261.792969 330.777344 C 256.292969 339.648438 247.679688 347.136719 236.699219 352.332031 Z M 236.699219 352.332031 " fill-opacity="1" fill-rule="nonzero"/></g></svg>